<svg width="195" height="39" viewBox="0 0 195 39" fill="none" xmlns="http://www.w3.org/2000/svg">
<path d="M53.224 23.8H44.296L42.448 28H39.976L47.584 11.2H49.96L57.592 28H55.072L53.224 23.8ZM52.384 21.88L48.76 13.648L45.136 21.88H52.384ZM71.6449 10.192V28H69.4369V25.984C68.9249 26.688 68.2769 27.224 67.4929 27.592C66.7089 27.96 65.8449 28.144 64.9009 28.144C63.6689 28.144 62.5649 27.872 61.5889 27.328C60.6129 26.784 59.8449 26.024 59.2849 25.048C58.7409 24.056 58.4689 22.92 58.4689 21.64C58.4689 20.36 58.7409 19.232 59.2849 18.256C59.8449 17.28 60.6129 16.52 61.5889 15.976C62.5649 15.432 63.6689 15.16 64.9009 15.16C65.8129 15.16 66.6529 15.336 67.4209 15.688C68.1889 16.024 68.8289 16.528 69.3409 17.2V10.192H71.6449ZM65.0929 26.128C65.8929 26.128 66.6209 25.944 67.2769 25.576C67.9329 25.192 68.4449 24.664 68.8129 23.992C69.1809 23.304 69.3649 22.52 69.3649 21.64C69.3649 20.76 69.1809 19.984 68.8129 19.312C68.4449 18.624 67.9329 18.096 67.2769 17.728C66.6209 17.36 65.8929 17.176 65.0929 17.176C64.2769 17.176 63.5409 17.36 62.8849 17.728C62.2449 18.096 61.7329 18.624 61.3489 19.312C60.9809 19.984 60.7969 20.76 60.7969 21.64C60.7969 22.52 60.9809 23.304 61.3489 23.992C61.7329 24.664 62.2449 25.192 62.8849 25.576C63.5409 25.944 64.2769 26.128 65.0929 26.128ZM88.0043 10.192V28H85.7963V25.984C85.2843 26.688 84.6363 27.224 83.8523 27.592C83.0683 27.96 82.2043 28.144 81.2603 28.144C80.0283 28.144 78.9243 27.872 77.9483 27.328C76.9723 26.784 76.2043 26.024 75.6443 25.048C75.1003 24.056 74.8283 22.92 74.8283 21.64C74.8283 20.36 75.1003 19.232 75.6443 18.256C76.2043 17.28 76.9723 16.52 77.9483 15.976C78.9243 15.432 80.0283 15.16 81.2603 15.16C82.1723 15.16 83.0123 15.336 83.7803 15.688C84.5483 16.024 85.1883 16.528 85.7003 17.2V10.192H88.0043ZM81.4523 26.128C82.2523 26.128 82.9803 25.944 83.6363 25.576C84.2923 25.192 84.8043 24.664 85.1723 23.992C85.5403 23.304 85.7243 22.52 85.7243 21.64C85.7243 20.76 85.5403 19.984 85.1723 19.312C84.8043 18.624 84.2923 18.096 83.6363 17.728C82.9803 17.36 82.2523 17.176 81.4523 17.176C80.6363 17.176 79.9003 17.36 79.2443 17.728C78.6043 18.096 78.0923 18.624 77.7083 19.312C77.3403 19.984 77.1563 20.76 77.1563 21.64C77.1563 22.52 77.3403 23.304 77.7083 23.992C78.0923 24.664 78.6043 25.192 79.2443 25.576C79.9003 25.944 80.6363 26.128 81.4523 26.128ZM105.961 27.256C105.625 27.544 105.209 27.768 104.713 27.928C104.217 28.072 103.705 28.144 103.177 28.144C101.897 28.144 100.905 27.8 100.201 27.112C99.497 26.424 99.145 25.44 99.145 24.16V17.176H96.985V15.28H99.145V12.496H101.449V15.28H105.097V17.176H101.449V24.064C101.449 24.752 101.617 25.28 101.953 25.648C102.305 26.016 102.801 26.2 103.441 26.2C104.145 26.2 104.745 26 105.241 25.6L105.961 27.256ZM113.773 28.144C112.509 28.144 111.373 27.864 110.365 27.304C109.357 26.744 108.565 25.976 107.989 25C107.429 24.008 107.149 22.888 107.149 21.64C107.149 20.392 107.429 19.28 107.989 18.304C108.565 17.312 109.357 16.544 110.365 16C111.373 15.44 112.509 15.16 113.773 15.16C115.037 15.16 116.165 15.44 117.157 16C118.165 16.544 118.949 17.312 119.509 18.304C120.085 19.28 120.373 20.392 120.373 21.64C120.373 22.888 120.085 24.008 119.509 25C118.949 25.976 118.165 26.744 117.157 27.304C116.165 27.864 115.037 28.144 113.773 28.144ZM113.773 26.128C114.589 26.128 115.317 25.944 115.957 25.576C116.613 25.192 117.125 24.664 117.493 23.992C117.861 23.304 118.045 22.52 118.045 21.64C118.045 20.76 117.861 19.984 117.493 19.312C117.125 18.624 116.613 18.096 115.957 17.728C115.317 17.36 114.589 17.176 113.773 17.176C112.957 17.176 112.221 17.36 111.565 17.728C110.925 18.096 110.413 18.624 110.029 19.312C109.661 19.984 109.477 20.76 109.477 21.64C109.477 22.52 109.661 23.304 110.029 23.992C110.413 24.664 110.925 25.192 111.565 25.576C112.221 25.944 112.957 26.128 113.773 26.128ZM135.12 28.24C133.824 28.24 132.568 28.056 131.352 27.688C130.152 27.32 129.2 26.832 128.496 26.224L129.576 23.8C130.264 24.344 131.104 24.792 132.096 25.144C133.104 25.48 134.112 25.648 135.12 25.648C136.368 25.648 137.296 25.448 137.904 25.048C138.528 24.648 138.84 24.12 138.84 23.464C138.84 22.984 138.664 22.592 138.312 22.288C137.976 21.968 137.544 21.72 137.016 21.544C136.488 21.368 135.768 21.168 134.856 20.944C133.576 20.64 132.536 20.336 131.736 20.032C130.952 19.728 130.272 19.256 129.696 18.616C129.136 17.96 128.856 17.08 128.856 15.976C128.856 15.048 129.104 14.208 129.6 13.456C130.112 12.688 130.872 12.08 131.88 11.632C132.904 11.184 134.152 10.96 135.624 10.96C136.648 10.96 137.656 11.088 138.648 11.344C139.64 11.6 140.496 11.968 141.216 12.448L140.232 14.872C139.496 14.44 138.728 14.112 137.928 13.888C137.128 13.664 136.352 13.552 135.6 13.552C134.368 13.552 133.448 13.76 132.84 14.176C132.248 14.592 131.952 15.144 131.952 15.832C131.952 16.312 132.12 16.704 132.456 17.008C132.808 17.312 133.248 17.552 133.776 17.728C134.304 17.904 135.024 18.104 135.936 18.328C137.184 18.616 138.208 18.92 139.008 19.24C139.808 19.544 140.488 20.016 141.048 20.656C141.624 21.296 141.912 22.16 141.912 23.248C141.912 24.176 141.656 25.016 141.144 25.768C140.648 26.52 139.888 27.12 138.864 27.568C137.84 28.016 136.592 28.24 135.12 28.24ZM144.718 10.192H147.718V28H144.718V10.192ZM156.552 15.04C158.44 15.04 159.88 15.496 160.872 16.408C161.88 17.304 162.384 18.664 162.384 20.488V28H159.552V26.44C159.184 27 158.656 27.432 157.968 27.736C157.296 28.024 156.48 28.168 155.52 28.168C154.56 28.168 153.72 28.008 153 27.688C152.28 27.352 151.72 26.896 151.32 26.32C150.936 25.728 150.744 25.064 150.744 24.328C150.744 23.176 151.168 22.256 152.016 21.568C152.88 20.864 154.232 20.512 156.072 20.512H159.384V20.32C159.384 19.424 159.112 18.736 158.568 18.256C158.04 17.776 157.248 17.536 156.192 17.536C155.472 17.536 154.76 17.648 154.056 17.872C153.368 18.096 152.784 18.408 152.304 18.808L151.128 16.624C151.8 16.112 152.608 15.72 153.552 15.448C154.496 15.176 155.496 15.04 156.552 15.04ZM156.144 25.984C156.896 25.984 157.56 25.816 158.136 25.48C158.728 25.128 159.144 24.632 159.384 23.992V22.504H156.288C154.56 22.504 153.696 23.072 153.696 24.208C153.696 24.752 153.912 25.184 154.344 25.504C154.776 25.824 155.376 25.984 156.144 25.984ZM172.231 28.168C170.903 28.168 169.711 27.888 168.655 27.328C167.599 26.768 166.775 25.992 166.183 25C165.591 23.992 165.295 22.856 165.295 21.592C165.295 20.328 165.591 19.2 166.183 18.208C166.775 17.216 167.591 16.44 168.631 15.88C169.687 15.32 170.887 15.04 172.231 15.04C173.495 15.04 174.599 15.296 175.543 15.808C176.503 16.32 177.223 17.056 177.703 18.016L175.399 19.36C175.031 18.768 174.567 18.328 174.007 18.04C173.463 17.736 172.863 17.584 172.207 17.584C171.087 17.584 170.159 17.952 169.423 18.688C168.687 19.408 168.319 20.376 168.319 21.592C168.319 22.808 168.679 23.784 169.399 24.52C170.135 25.24 171.071 25.6 172.207 25.6C172.863 25.6 173.463 25.456 174.007 25.168C174.567 24.864 175.031 24.416 175.399 23.824L177.703 25.168C177.207 26.128 176.479 26.872 175.519 27.4C174.575 27.912 173.479 28.168 172.231 28.168ZM185.411 22.504L183.179 24.616V28H180.179V10.192H183.179V20.944L189.395 15.184H192.995L187.643 20.56L193.499 28H189.851L185.411 22.504Z" fill="black"/>
<path d="M6.72313 24.2215C6.72313 26.0716 5.21173 27.583 3.36156 27.583C1.5114 27.583 0 26.0716 0 24.2215C0 22.3713 1.5114 20.8599 3.36156 20.8599H6.72313V24.2215Z" fill="#E01E5A"/>
<path d="M8.41699 24.2215C8.41699 22.3713 9.92839 20.8599 11.7785 20.8599C13.6287 20.8599 15.1401 22.3713 15.1401 24.2215V32.6384C15.1401 34.4886 13.6287 36 11.7785 36C9.92839 36 8.41699 34.4886 8.41699 32.6384V24.2215Z" fill="#E01E5A"/>
<path d="M11.7785 10.7231C9.92839 10.7231 8.41699 9.21173 8.41699 7.36156C8.41699 5.5114 9.92839 4 11.7785 4C13.6287 4 15.1401 5.5114 15.1401 7.36156V10.7231H11.7785Z" fill="#36C5F0"/>
<path d="M11.7785 12.417C13.6287 12.417 15.1401 13.9284 15.1401 15.7785C15.1401 17.6287 13.6287 19.1401 11.7785 19.1401H3.36156C1.5114 19.1401 0 17.6287 0 15.7785C0 13.9284 1.5114 12.417 3.36156 12.417H11.7785Z" fill="#36C5F0"/>
<path d="M25.2773 15.7785C25.2773 13.9284 26.7887 12.417 28.6389 12.417C30.4891 12.417 32.0005 13.9284 32.0005 15.7785C32.0005 17.6287 30.4891 19.1401 28.6389 19.1401H25.2773V15.7785Z" fill="#2EB67D"/>
<path d="M23.5835 15.7785C23.5835 17.6287 22.0721 19.1401 20.2219 19.1401C18.3717 19.1401 16.8604 17.6287 16.8604 15.7785V7.36156C16.8604 5.5114 18.3717 4 20.2219 4C22.0721 4 23.5835 5.5114 23.5835 7.36156V15.7785Z" fill="#2EB67D"/>
<path d="M20.2219 29.2769C22.0721 29.2769 23.5835 30.7883 23.5835 32.6384C23.5835 34.4886 22.0721 36 20.2219 36C18.3717 36 16.8604 34.4886 16.8604 32.6384V29.2769H20.2219Z" fill="#ECB22E"/>
<path d="M20.2219 27.583C18.3718 27.583 16.8604 26.0716 16.8604 24.2215C16.8604 22.3713 18.3718 20.8599 20.2219 20.8599H28.6389C30.489 20.8599 32.0004 22.3713 32.0004 24.2215C32.0004 26.0716 30.489 27.583 28.6389 27.583H20.2219Z" fill="#ECB22E"/>
</svg>
