<svg width="672" height="514" viewBox="0 0 672 514" fill="none" xmlns="http://www.w3.org/2000/svg">
<path opacity="0.1" d="M654.028 477.443C646.707 484.382 637.867 489.327 628.322 492.987C626.933 493.529 625.524 494.037 624.096 494.508C620.408 495.764 616.634 496.852 612.827 497.803C610.95 498.282 609.059 498.723 607.169 499.134C603.954 499.842 600.726 500.473 597.518 501.052C585.61 503.189 573.622 504.772 561.574 505.974C557.86 506.35 554.144 506.687 550.425 506.986L548.941 507.108L546.279 507.313L544.641 507.435C542.152 507.625 539.662 507.793 537.18 507.952C527.229 508.591 517.264 509.056 507.3 509.474C499.978 509.763 492.73 510.007 485.448 510.235L470.638 510.729L466.811 510.859L465.133 510.912C460.749 511.064 456.361 511.209 451.967 511.346L450.729 511.384L446.869 511.513L439.547 511.741L437.364 511.81L435.367 511.871C388.887 513.301 342.374 514.343 295.92 513.895C292.202 513.864 288.486 513.818 284.771 513.758C250.279 513.248 215.827 511.871 181.435 509.193C169.347 508.249 157.18 507.108 145.079 505.533C141.351 505.051 137.635 504.526 133.93 503.958C104.203 499.393 75.209 491.693 49.2366 477.328C29.6742 466.486 11.616 451.064 4.04132 430.544C-3.60661 409.834 0.440336 386.575 9.17321 366.276C17.9061 345.977 31.0453 327.785 42.3741 308.71C46.268 302.144 49.9488 295.304 53.2836 288.274C53.4833 287.848 53.6896 287.414 53.8826 286.988C55.591 283.321 57.2018 279.608 58.715 275.85C60.1527 272.269 61.484 268.652 62.7087 265C63.077 263.909 63.4298 262.821 63.767 261.736C63.807 261.614 63.8469 261.492 63.8802 261.371C63.9135 261.249 63.9667 261.097 64.0066 260.96C66.1599 254.052 67.8379 246.962 69.0254 239.755L69.1851 238.751C69.2584 238.272 69.3316 237.8 69.3981 237.32C69.4647 236.841 69.5246 236.43 69.5845 235.981C70.5095 229.226 70.855 222.384 70.6162 215.553C70.6162 215.302 70.6162 215.051 70.6162 214.792C70.4685 211.29 70.1351 207.801 69.6178 204.346C69.5778 204.049 69.5379 203.76 69.4847 203.471C68.7092 198.513 67.5349 193.649 65.9769 188.938C65.9103 188.733 65.8371 188.52 65.7639 188.307C65.7639 188.216 65.704 188.117 65.6707 188.025C65.1715 186.572 64.639 185.134 64.0532 183.696C63.96 183.453 63.8535 183.202 63.7537 182.935C63.5607 182.471 63.3677 182.007 63.1613 181.551C62.225 179.365 61.1822 177.206 60.0329 175.076C58.7017 172.542 57.1907 170.062 55.6398 167.627L55.4202 167.285L55.2405 166.996C53.2037 163.823 51.0737 160.704 48.997 157.554C47.3662 155.096 45.7688 152.623 44.2711 150.105L44.0049 149.648C42.1896 146.609 40.5701 143.423 39.1592 140.115C38.8796 139.438 38.6067 138.761 38.3538 138.076C37.9012 136.874 37.4819 135.664 37.1091 134.447C31.9972 117.937 33.5481 99.9046 36.0042 82.7095C39.6451 57.1604 46.4211 29.6255 67.3946 13.6782C85.7057 -0.252803 110.487 -1.881 133.956 1.50475C137.717 2.03734 141.438 2.69927 145.105 3.46012L147.102 3.8938C176.789 10.399 204.864 21.9182 232.594 34.2514C239.07 37.135 245.533 40.0643 251.99 42.9783C257.035 45.2558 262.083 47.5205 267.133 49.7726C272.968 52.3696 278.847 54.9058 284.771 57.3811C288.472 58.9332 292.189 60.4549 295.92 61.9461C301.907 64.325 307.933 66.5847 313.999 68.7252C318.294 70.2469 322.612 71.6798 326.951 73.024C347.586 79.4455 368.752 83.8964 390.418 84.7562C406.921 85.4202 423.431 83.6713 439.547 79.552C443.308 78.5781 447.035 77.4597 450.696 76.1967C455.807 74.4375 460.829 72.3572 465.739 69.9654C478.126 63.8787 489.262 55.8442 498.075 45.6184L498.148 45.5347C511.201 30.4016 530.337 22.7094 550.385 21.4236C554.098 21.1839 557.82 21.1611 561.534 21.3552C575.473 22.0143 589.177 25.68 601.924 32.1591C633.634 48.5933 654.142 83.3867 652.597 118.134C650.354 168.715 607.695 207.541 582.242 251.792C580.445 254.911 578.734 258.13 577.143 261.416C576.557 262.618 575.998 263.828 575.453 265.046C569.182 279.045 565.415 294.163 567.465 308.688C567.822 311.248 568.365 313.77 569.089 316.228C569.402 317.3 569.755 318.373 570.148 319.438C573.07 327.397 577.689 334.145 583.387 340.148C585.97 342.847 588.688 345.372 591.527 347.711C615.276 367.447 649.675 379.895 664.871 406.859C677.585 429.22 672.885 459.54 654.028 477.443Z" fill="#3BC4FF"/>
</svg>
