<svg width="693" height="420" viewBox="0 0 693 420" fill="none" xmlns="http://www.w3.org/2000/svg">
<path opacity="0.1" d="M266.821 57.5208C296.514 77.8024 335.028 76.4902 368.779 65.9362C402.529 55.3821 433.532 36.5987 466.416 23.2446C493.984 12.05 522.913 4.69881 552.195 1.42876C594.106 -3.25161 640.909 2.46195 670.107 35.2348C702.625 71.7479 700.128 137.604 664.971 171.1C647.078 188.147 623.651 196.516 603.223 209.844C582.794 223.173 563.874 245.262 565.613 270.958C567.225 294.721 585.952 312.993 605.335 324.446C620.313 333.296 638.758 342.961 640.562 361.295C642.308 379.03 626.797 392.931 611.986 400.835C563.668 426.619 504.128 426.371 455.977 400.185C438.809 390.839 423.042 378.41 405.033 371.136C357.749 352.022 305.643 371.26 255.572 378.301C213.2 384.258 169.742 381.169 128.454 369.271C103.659 362.127 78.7684 351.19 61.3506 330.857C48.7864 316.186 40.9602 297.614 33.6156 279.275C25.783 259.724 18.2523 240.031 11.0233 220.197C6.68964 208.29 2.42029 196.155 1.29675 183.421C-0.731995 160.339 7.81952 137.521 19.4656 118.045C47.1171 71.7944 93.6889 39.2746 144.125 31.0142C194.562 22.7539 247.92 38.8872 287.038 74.1914" fill="#FFA546"/>
</svg>
