<svg width="692" height="420" viewBox="0 0 692 420" fill="none" xmlns="http://www.w3.org/2000/svg">
<path opacity="0.1" d="M265.822 57.5208C295.516 77.8024 334.03 76.4902 367.781 65.9362C401.531 55.3821 432.534 36.5987 465.418 23.2446C492.986 12.05 521.915 4.69881 551.197 1.42876C593.108 -3.25161 639.911 2.46195 669.109 35.2348C701.627 71.7479 699.13 137.604 663.973 171.1C646.08 188.147 622.653 196.516 602.224 209.844C581.796 223.173 562.876 245.262 564.615 270.958C566.227 294.721 584.954 312.993 604.337 324.446C619.315 333.296 637.76 342.961 639.564 361.295C641.31 379.03 625.799 392.931 610.988 400.835C562.67 426.619 503.13 426.371 454.979 400.185C437.811 390.839 422.044 378.41 404.035 371.136C356.751 352.022 304.645 371.26 254.574 378.301C212.202 384.258 168.744 381.169 127.456 369.271C102.661 362.127 77.7704 351.19 60.3526 330.857C47.7884 316.186 39.9622 297.614 32.6176 279.275C24.785 259.724 17.2543 240.031 10.0252 220.197C5.69165 208.29 1.42218 196.155 0.298706 183.421C-1.7301 160.339 6.82147 137.521 18.4676 118.045C46.1191 71.7944 92.6908 39.2746 143.127 31.0142C193.564 22.7539 246.922 38.8872 286.039 74.1914" fill="#FD97B6"/>
</svg>
