<svg width="480" height="368" viewBox="0 0 480 368" fill="none" xmlns="http://www.w3.org/2000/svg">
<path opacity="0.1" d="M210.103 3.51137C231.696 -4.51463 257.982 2.38802 280.43 12.4552C350.934 44.0812 402.297 104.116 443.106 165.279C457.882 187.426 471.916 210.548 477.471 235.271C488.781 285.593 459.282 337.688 409.114 355.943C392.053 362.158 373.31 364.705 354.538 366.125C321.158 368.654 286.597 367.65 253.484 358.286C229.87 351.593 207.532 340.828 186.107 328.935C126.272 295.703 71.6296 252.547 32.2836 199.831C15.0269 176.709 0.428124 150.642 0.0074642 123.964C-0.413196 97.2851 16.9725 70.4776 45.5774 65.9412C57.4037 64.0673 69.9135 66.0176 82.1174 68.0253C100.086 70.9843 118.299 74.0962 136.062 72.8056C154.414 71.4623 178.281 64.292 181.627 46.7724C185.17 27.9622 188.54 11.5278 210.103 3.51137Z" fill="#83A85E"/>
</svg>
