<svg width="528" height="280" viewBox="0 0 528 280" fill="none" xmlns="http://www.w3.org/2000/svg">
<path opacity="0.1" d="M22.3749 38.3003C23.2298 43.7243 25.4146 48.9631 25.4336 54.4488C25.5048 72.3736 3.75664 83.383 0.427204 100.994C-1.54861 111.443 3.5714 122.12 10.7907 129.914C18.01 137.708 27.2146 143.327 35.6926 149.739C59.1495 167.512 77.2303 191.43 87.9328 218.845C90.0749 224.354 91.9177 230.035 92.5257 235.915C92.9674 240.189 92.7584 244.564 93.7605 248.739C97.7264 265.31 117.836 271.741 134.839 272.814C162.225 274.514 189.636 269.936 214.983 259.43C220.683 257.055 226.567 254.357 232.685 255.027C237.577 255.564 241.942 258.209 246.235 260.617C258.88 267.714 272.336 273.254 286.312 277.117C294.054 279.254 302.18 280.879 310.088 279.492C333.836 275.303 346.455 246.501 369.757 240.204C385.877 235.848 402.652 243.457 417.11 251.811C431.567 260.166 446.49 269.789 463.18 269.812C485.446 269.841 503.751 252.989 518.854 236.632C522.022 233.198 525.243 229.607 526.753 225.186C529.816 216.209 524.853 206.126 517.515 200.094C510.177 194.062 500.925 191.07 492.086 187.621C477.104 181.776 462.807 174.31 449.449 165.355C440.805 159.561 432.432 153.007 426.518 144.457C421.432 137.086 418.378 128.542 414.968 120.259C407.492 102.12 396.919 83.687 379.265 75.1758C364.85 68.2225 348.108 69.0014 332.107 68.8162C308.53 68.555 284.355 65.7195 263.452 54.8145C245.798 45.6052 231.298 31.0668 213.383 22.3609C184.885 8.52544 152.308 11.2374 121.602 11.7599C106.846 12.0116 89.3055 13.484 75.1328 8.64893C64.6506 5.07252 59.2551 -2.23703 47.215 0.707687C30.7483 4.72105 19.7436 21.5677 22.3749 38.3003Z" fill="#83A85E"/>
</svg>
