<svg width="48" height="48" viewBox="0 0 48 48" fill="none" xmlns="http://www.w3.org/2000/svg">
<rect width="48" height="48" rx="8" fill="#3BC4FF"/>
<path d="M23.9999 35.1161C30.1391 35.1161 35.1159 30.1392 35.1159 24C35.1159 17.8608 30.1391 12.8839 23.9999 12.8839C17.8606 12.8839 12.8838 17.8608 12.8838 24C12.8838 30.1392 17.8606 35.1161 23.9999 35.1161Z" fill="#FFD88E"/>
<path d="M24.0001 29.7777C23.0398 29.7777 22.0795 29.4122 21.3485 28.6811C21.087 28.4196 21.087 27.9956 21.3485 27.7341C21.61 27.4726 22.034 27.4726 22.2955 27.7341C23.2355 28.674 24.7648 28.674 25.7048 27.7341C25.9663 27.4726 26.3903 27.4726 26.6518 27.7341C26.9133 27.9956 26.9133 28.4196 26.6518 28.6811C25.9207 29.4122 24.9604 29.7777 24.0001 29.7777Z" fill="black"/>
<path d="M20.5285 23.1717C20.3571 23.1717 20.1857 23.1063 20.055 22.9755C19.6474 22.5679 18.9843 22.5679 18.5768 22.9755C18.3153 23.237 17.8913 23.237 17.6297 22.9755C17.3682 22.714 17.3682 22.29 17.6297 22.0284C18.5595 21.0987 20.0722 21.0987 21.002 22.0284C21.2635 22.2899 21.2635 22.714 21.002 22.9755C20.8713 23.1063 20.6998 23.1717 20.5285 23.1717Z" fill="black"/>
<path d="M29.8976 23.1717C29.7262 23.1717 29.5548 23.1063 29.4241 22.9755C29.0166 22.5679 28.3535 22.5679 27.9459 22.9755C27.6844 23.237 27.2604 23.237 26.9989 22.9755C26.7374 22.714 26.7374 22.29 26.9989 22.0284C27.9287 21.0987 29.4414 21.0987 30.3711 22.0284C30.6326 22.2899 30.6326 22.714 30.3711 22.9755C30.2404 23.1063 30.069 23.1717 29.8976 23.1717Z" fill="black"/>
<path d="M24.0007 10.875C23.6309 10.875 23.3311 10.5752 23.3311 10.2054V7.52679C23.3311 7.15694 23.6309 6.85714 24.0007 6.85714C24.3705 6.85714 24.6703 7.15694 24.6703 7.52679V10.2054C24.6703 10.5752 24.3705 10.875 24.0007 10.875Z" fill="black"/>
<path d="M34.0583 14.6111C33.8869 14.6111 33.7155 14.5458 33.5848 14.415C33.3233 14.1535 33.3233 13.7295 33.5848 13.4679L37.0839 9.96878C37.3454 9.70728 37.7695 9.70728 38.031 9.96878C38.2925 10.2303 38.2925 10.6543 38.031 10.9159L34.5319 14.415C34.4011 14.5458 34.2297 14.6111 34.0583 14.6111Z" fill="black"/>
<path d="M13.9412 14.6111C13.7699 14.6111 13.5984 14.5458 13.4677 14.415L9.96858 10.9159C9.70709 10.6544 9.70709 10.2303 9.96858 9.96878C10.2301 9.70728 10.6541 9.70728 10.9157 9.96878L14.4148 13.4679C14.6763 13.7294 14.6763 14.1534 14.4148 14.415C14.284 14.5458 14.1126 14.6111 13.9412 14.6111Z" fill="black"/>
<path d="M37.5575 38.2273C37.3861 38.2273 37.2147 38.1619 37.0839 38.0312L33.5848 34.532C33.3233 34.2705 33.3233 33.8465 33.5848 33.5849C33.8463 33.3234 34.2703 33.3234 34.5319 33.5849L38.031 37.0841C38.2925 37.3456 38.2925 37.7696 38.031 38.0312C37.9002 38.1619 37.7288 38.2273 37.5575 38.2273Z" fill="black"/>
<path d="M10.4421 38.2273C10.2707 38.2273 10.0993 38.1619 9.96858 38.0312C9.70709 37.7697 9.70709 37.3457 9.96858 37.0841L13.4677 33.5849C13.7292 33.3234 14.1532 33.3234 14.4148 33.5849C14.6763 33.8464 14.6763 34.2705 14.4148 34.532L10.9156 38.0312C10.7849 38.1619 10.6134 38.2273 10.4421 38.2273Z" fill="black"/>
<path d="M24.0007 41.1429C23.6309 41.1429 23.3311 40.8431 23.3311 40.4732V37.7946C23.3311 37.4248 23.6309 37.125 24.0007 37.125C24.3705 37.125 24.6703 37.4248 24.6703 37.7946V40.4732C24.6703 40.8431 24.3705 41.1429 24.0007 41.1429Z" fill="black"/>
<path d="M40.4732 24.6696H37.7946C37.4248 24.6696 37.125 24.3698 37.125 24C37.125 23.6302 37.4248 23.3304 37.7946 23.3304H40.4732C40.8431 23.3304 41.1429 23.6302 41.1429 24C41.1429 24.3698 40.8431 24.6696 40.4732 24.6696Z" fill="black"/>
<path d="M10.2056 24.6696H7.52706C7.15722 24.6696 6.85742 24.3698 6.85742 24C6.85742 23.6302 7.15722 23.3304 7.52706 23.3304H10.2056C10.5755 23.3304 10.8753 23.6302 10.8753 24C10.8753 24.3698 10.5755 24.6696 10.2056 24.6696Z" fill="black"/>
<path fill-rule="evenodd" clip-rule="evenodd" d="M35.5646 23.9537C35.5646 30.4609 30.2895 35.736 23.7823 35.736C17.2751 35.736 12 30.4609 12 23.9537C12 17.4465 17.2751 12.1714 23.7823 12.1714C30.2895 12.1714 35.5646 17.4465 35.5646 23.9537ZM23.7823 34.3895C29.5458 34.3895 34.218 29.7172 34.218 23.9537C34.218 18.1902 29.5458 13.518 23.7823 13.518C18.0188 13.518 13.3465 18.1902 13.3465 23.9537C13.3465 29.7172 18.0188 34.3895 23.7823 34.3895Z" fill="black"/>
</svg>
