<?xml version="1.0" encoding="UTF-8" standalone="no"?>
<svg
   xmlns:dc="http://purl.org/dc/elements/1.1/"
   xmlns:cc="http://creativecommons.org/ns#"
   xmlns:rdf="http://www.w3.org/1999/02/22-rdf-syntax-ns#"
   xmlns:svg="http://www.w3.org/2000/svg"
   xmlns="http://www.w3.org/2000/svg"
   xmlns:sodipodi="http://sodipodi.sourceforge.net/DTD/sodipodi-0.dtd"
   xmlns:inkscape="http://www.inkscape.org/namespaces/inkscape"
   inkscape:version="1.0 (4035a4f, 2020-05-01)"
   sodipodi:docname="undraw_questions.svg"
   id="svg958"
   version="1.1"
   fill="none"
   viewBox="0 0 150 313"
   height="313"
   width="150">
  <metadata
     id="metadata962">
    <rdf:RDF>
      <cc:Work
         rdf:about="">
        <dc:format>image/svg+xml</dc:format>
        <dc:type
           rdf:resource="http://purl.org/dc/dcmitype/StillImage" />
        <dc:title></dc:title>
      </cc:Work>
    </rdf:RDF>
  </metadata>
  <sodipodi:namedview
     inkscape:current-layer="svg958"
     inkscape:window-maximized="0"
     inkscape:window-y="0"
     inkscape:window-x="0"
     inkscape:cy="200"
     inkscape:cx="240"
     inkscape:zoom="1.4833333"
     showgrid="false"
     id="namedview960"
     inkscape:window-height="1120"
     inkscape:window-width="1792"
     inkscape:pageshadow="2"
     inkscape:pageopacity="0"
     guidetolerance="10"
     gridtolerance="10"
     objecttolerance="10"
     borderopacity="1"
     bordercolor="#666666"
     pagecolor="#ffffff" />
  <g
     transform="translate(0,-25.000036)"
     id="g1018">
    <path
       d="m 99.8474,315.892 c 0,0 23.0696,-1.391 20.3496,14.775 0,0 0.54,2.869 -2.051,4.154 0,0 -0.038,-1.199 -2.366,-0.793 -0.827,0.142 -1.668,0.184 -2.505,0.124 -1.132,-0.078 -2.207,-0.523 -3.064,-1.267 0,0 -6.487,-2.676 -9.006,-13.279 0,0 -1.869,-2.309 -1.7926,-2.906 l 3.8916,1.663 c 0,0 -1.329,2.811 -0.282,5.144 0,0 0.124,-5.039 0.874,-4.924 0.148,0.024 2.022,0.956 2.022,0.956 0,0 -2.289,4.89 -0.564,8.447 0,0 -0.655,-6.028 1.277,-8.093 l 2.743,1.601 c 0,0 -2.676,5.053 -0.86,9.173 0,0 -0.478,-6.324 1.434,-8.786 l 2.486,1.913 c 0,0 -2.515,4.981 -0.98,8.403 0,0 0.196,-7.366 1.515,-7.921 0,0 2.175,1.912 2.505,2.706 0,0 -1.721,3.614 -0.655,5.521 0,0 0.655,-4.904 1.195,-4.928 0,0 2.161,3.25 2.39,5.478 0,0 -0.095,-3.313 -1.869,-5.789 0,0 2.094,0.358 3.318,1.716 0,0 -0.34,-2.299 -3.848,-2.5 0,0 -1.788,-2.462 -2.271,-2.615 0,0 3.494,-0.291 5.612,0.65 0,0 -1.864,-2.17 -6.253,-1.185 l -2.452,-1.998 c 0,0 4.604,-0.631 6.549,0.067 0,0 -2.242,-1.912 -7.208,-0.521 l -2.668,-1.597 c 0,0 3.92,-0.846 6.257,-0.54 0,0 -2.466,-1.329 -7.041,0.11 l -1.912,-0.856 c 0,0 2.868,-0.564 3.714,-0.655 0.846,-0.091 0.885,-0.32 0.885,-0.32 -1.82,-0.305 -3.688,-0.098 -5.397,0.597 0,0 -4.0443,-1.448 -3.9726,-1.725 z"
       fill="#83a85e"
       id="path833" />
    <path
       opacity="0.1"
       d="m 115.737,338.99 c 9.019,0 16.33,-1.235 16.33,-2.758 0,-1.524 -7.311,-2.758 -16.33,-2.758 -9.018,0 -16.3288,1.234 -16.3288,2.758 0,1.523 7.3108,2.758 16.3288,2.758 z"
       fill="#83a85e"
       id="path835" />
    <path
       d="m 68.9438,305.017 c 0,0 13.007,-0.784 11.4726,8.332 0.081,0.462 0.0131,0.938 -0.194,1.359 -0.207,0.421 -0.5426,0.765 -0.9581,0.983 0,0 -0.0239,-0.674 -1.3336,-0.444 -0.4656,0.079 -0.9392,0.102 -1.4102,0.066 -0.6397,-0.039 -1.2483,-0.29 -1.7304,-0.712 0,0 -3.6522,-1.515 -5.0862,-7.49 0,0 -1.0517,-1.305 -1.0134,-1.64 l 2.1989,0.956 c 0,0 -0.7505,1.587 -0.1625,2.902 0,0 0.0717,-2.845 0.478,-2.778 0.086,0 1.1424,0.55 1.1424,0.55 0,0 -1.2906,2.758 -0.3155,4.78 0,0 -0.3728,-3.398 0.7171,-4.565 l 1.544,0.904 c 0,0 -1.5058,2.868 -0.478,5.172 0,0 -0.2629,-3.566 0.8078,-4.952 l 1.4006,1.089 c 0,0 -1.434,2.806 -0.5497,4.738 0,0 0.11,-4.154 0.8557,-4.465 0,0 1.2237,1.08 1.4101,1.525 0,0 -0.956,2.036 -0.368,3.112 0,0 0.3681,-2.763 0.674,-2.778 0,0 1.2189,1.831 1.3432,3.088 -0.0609,-1.161 -0.4234,-2.286 -1.0516,-3.264 0.7032,0.128 1.3532,0.461 1.8691,0.956 0,0 -0.1865,-1.296 -2.1703,-1.411 0,0 -1.0086,-1.391 -1.2763,-1.472 0,0 1.9695,-0.167 3.1645,0.363 0,0 -1.0516,-1.223 -3.5278,-0.669 l -1.3815,-1.128 c 0,0 2.5957,-0.354 3.6951,0.038 0,0 -1.2667,-1.08 -4.0679,-0.291 l -1.501,-0.904 c 1.1563,-0.252 2.3406,-0.354 3.523,-0.301 0,0 -1.3863,-0.75 -3.9676,0.062 l -1.0755,-0.478 c 0,0 1.6205,-0.32 2.0937,-0.368 0.4732,-0.048 0.5019,-0.182 0.5019,-0.182 -1.0268,-0.17 -2.0808,-0.052 -3.045,0.34 0,0 -2.2658,-0.865 -2.2276,-1.023 z"
       fill="#83a85e"
       id="path837" />
    <path
       opacity="0.1"
       d="m 77.902,318.038 c 5.0848,0 9.2068,-0.698 9.2068,-1.558 0,-0.861 -4.122,-1.558 -9.2068,-1.558 -5.0847,0 -9.2067,0.697 -9.2067,1.558 0,0.86 4.122,1.558 9.2067,1.558 z"
       fill="#004492"
       id="path839" />
    <path
       d="m 7.29037,321.604 c 0,0 15.70303,-0.956 13.86263,10.038 0.0941,0.559 0.0099,1.133 -0.2406,1.641 -0.2506,0.508 -0.6548,0.924 -1.1552,1.189 0,0 -0.0287,-0.817 -1.6109,-0.54 -0.5635,0.096 -1.1365,0.123 -1.7066,0.081 -0.7704,-0.05 -1.5028,-0.352 -2.0842,-0.86 0,0 -4.41688,-1.821 -6.13298,-9.039 0,0 -1.27156,-1.573 -1.21898,-1.975 l 2.64826,1.129 c 0,0 -0.90347,1.912 -0.19122,3.503 0,0 0.08604,-3.432 0.59272,-3.346 0.1052,0 1.3767,0.66 1.3767,0.66 0,0 -1.55831,3.346 -0.3824,5.736 0,0 -0.4445,-4.101 0.87,-5.507 l 1.8643,1.085 c 0,0 -1.8213,3.442 -0.5832,6.248 0,0 -0.3202,-4.302 0.9561,-5.98 l 1.6922,1.32 c 0,0 -1.7113,3.389 -0.6693,5.736 0,0 0.1387,-5.01 1.0373,-5.392 0,0 1.4771,1.305 1.7018,1.84 0,0 -1.1711,2.462 -0.4445,3.762 0,0 0.4445,-3.346 0.8126,-3.346 0,0 1.4723,2.213 1.6253,3.729 -0.0712,-1.401 -0.5079,-2.759 -1.2668,-3.939 0.8496,0.16 1.6338,0.566 2.2563,1.166 0,0 -0.2295,-1.563 -2.6244,-1.702 0,0 -1.2141,-1.678 -1.5392,-1.778 0,0 2.3901,-0.201 3.8242,0.44 0,0 -1.2716,-1.473 -4.2592,-0.803 l -1.6683,-1.363 c 0,0 3.1311,-0.43 4.46,0.043 0,0 -1.5297,-1.305 -4.9093,-0.353 l -1.8165,-1.085 c 0,0 2.6673,-0.574 4.2591,-0.369 0,0 -1.6778,-0.903 -4.7802,0.077 l -1.3002,-0.583 c 0,0 1.9551,-0.387 2.5287,-0.445 0.5737,-0.057 0.6023,-0.22 0.6023,-0.22 -1.2377,-0.206 -2.5085,-0.066 -3.6712,0.407 0,0 -2.76293,-1.023 -2.71513,-1.205 z"
       fill="#83a85e"
       id="path841" />
    <path
       opacity="0.1"
       d="m 14.1145,335.389 c -6.13814,0 -11.11406,-0.842 -11.11406,-1.879 0,-1.038 4.97592,-1.879 11.11406,-1.879 6.1381,0 11.114,0.841 11.114,1.879 0,1.037 -4.9759,1.879 -11.114,1.879 z"
       fill="#83a85e"
       id="path843" />
    <path
       opacity="0.1"
       d="m 57.9987,324 c -21.5387,0 -38.9993,-1.721 -38.9993,-3.844 0,-2.124 17.4606,-3.845 38.9993,-3.845 21.5388,0 38.9993,1.721 38.9993,3.845 0,2.123 -17.4605,3.844 -38.9993,3.844 z"
       fill="#83a85e"
       id="path845" />
    <path
       style="fill:url(#paint0_linear)"
       d="m 19.0049,204.161 c 0.2396,-1.338 0.3781,-2.693 0.4145,-4.053 0,-1.631 2.2169,-3.076 2.2169,-3.076 0,0 1.3689,-3.168 2.2816,-3.636 0.9126,-0.467 3.7303,-4.612 3.7303,-4.612 0.0324,-0.818 0.33,-1.603 0.848,-2.236 0.8441,-1.11 1.6151,-2.273 2.3081,-3.483 0.3803,-0.464 0.1902,-0.791 0.7606,-3.495 0.0304,-0.141 0.0646,-0.277 0.1064,-0.407 0,-0.061 0.0381,-0.114 0.0609,-0.175 -0.6053,-0.607 -1.0273,-1.372 -1.2177,-2.208 -0.1903,-0.836 -0.1413,-1.709 0.1415,-2.518 0.1025,-0.322 0.2889,-0.611 0.54,-0.837 0.6426,-0.525 1.6693,-0.308 2.331,-0.806 l -0.7035,-3.111 c -0.1673,-0.76 -0.2548,-1.722 0.4107,-2.133 0.2497,-0.118 0.5127,-0.206 0.7833,-0.262 1.1408,-0.38 1.8024,-1.586 2.099,-2.746 0.2852,-1.117 0.3625,-2.277 0.2282,-3.422 -0.1293,-1.103 -0.4525,-2.175 -0.5704,-3.282 -0.2144,-2.046 0.278,-4.105 1.3956,-5.833 0.4346,-0.745 1.0749,-1.35 1.8442,-1.741 0.7035,-0.316 1.5211,-0.381 2.1789,-0.761 1.4146,-0.901 1.3423,-3.042 2.4717,-4.27 1.1294,-1.228 3.1295,-1.225 4.776,-0.802 1.6466,0.422 3.2855,1.14 4.9738,0.962 1.0876,-0.122 2.1067,-0.616 3.198,-0.731 0.3122,-0.029 0.6271,-0.015 0.9354,0.042 v -0.034 c 0.8062,0.145 1.5477,0.593 1.7378,1.358 0.0427,0.181 0.0606,0.368 0.0532,0.555 0,0.445 -0.1064,0.909 -0.114,1.334 -0.0141,0.17 0.0059,0.34 0.0589,0.501 0.0529,0.162 0.1376,0.311 0.2491,0.439 0.2167,0.232 0.5361,0.353 0.7605,0.593 0.0915,0.092 0.1633,0.201 0.211,0.321 0.0477,0.12 0.0704,0.249 0.0666,0.379 0,0.676 -0.8442,1.273 -1.4108,1.547 h -0.0228 c 0.1521,0.152 0.3042,0.312 0.4449,0.476 1.6243,1.834 2.5199,4.2 2.5173,6.65 -0.0138,1.979 -0.6056,3.911 -1.7028,5.558 -1.0971,1.647 -2.6517,2.938 -4.4726,3.713 l 0.0799,0.247 c 0.1601,0.489 0.3467,0.969 0.559,1.438 0.3934,-0.133 0.8109,-0.177 1.2234,-0.131 0.4125,0.045 0.81,0.181 1.1646,0.397 1.0875,0.76 3.2132,0.699 3.7798,0.559 0.5666,-0.141 6.4644,-0.886 6.9397,-0.7 0.4753,0.186 1.4145,-0.65 2.0268,0.468 0.6122,1.118 0.8974,1.722 1.521,2.004 0.6236,0.281 1.6998,1.163 1.5553,1.35 -0.1445,0.186 1.559,1.304 1.559,1.304 0,0 1.464,1.521 2.312,1.723 0.848,0.201 2.6428,1.353 2.6428,1.353 l 2.08,1.628 c 0,0 1.5553,0.235 1.0837,-0.837 -0.4715,-1.072 0.8518,-2.422 0.8518,-2.422 0,0 2.6428,-5.358 2.6428,-6.464 0,-1.107 2.1713,-5.826 2.1713,-5.826 l 0.2662,-0.027 0.1217,-0.346 c 0.3992,-1.121 0.9164,-2.498 1.3119,-3.304 0.7605,-1.54 1.2282,-1.7 1.2282,-1.7 0,0 9.1569,-6.875 15.1039,-4.78 5.947,2.095 -10.8564,8.339 -12.3661,8.993 -0.5285,0.229 -0.9088,0.966 -1.175,1.829 1.3396,0.646 2.4674,1.661 3.2513,2.925 0,0 -3.6353,8.057 -3.7304,10.061 -0.0951,2.004 -2.5021,7.605 -2.5021,7.605 0,0 -0.8974,4.149 -5.7571,3.913 0,0 -6.704,1.232 -8.1679,0 -1.464,-1.232 -2.7835,-2.198 -3.4946,-2.338 -0.523,-0.172 -0.9826,-0.497 -1.3195,-0.932 0,0 2.2169,13.975 3.3044,15.188 1.0876,1.213 10.6967,16.902 7.2477,19.708 -2.7315,2.115 -5.6181,4.022 -8.6356,5.704 -0.2928,0.145 -1.1712,-1.319 -2.4261,-2.357 0,0.262 0,0.528 0,0.81 -0.0228,5.582 -0.7605,14.069 -1.7796,15.97 -1.521,2.795 -0.8974,8.199 -0.8974,8.199 -0.7997,0.376 -1.6681,0.585 -2.5515,0.612 -0.0457,0.183 -0.0989,0.38 -0.1483,0.57 -0.8328,3.145 -2.1827,8.009 -2.871,9.302 -1.0381,1.958 -1.791,8.156 -1.791,8.156 0,0 -0.616,6.084 -0.3803,6.94 0.0913,0.323 -0.308,2.856 -0.9354,6.084 0.3802,4.369 1.1028,12.792 1.2244,15.838 0,0.057 0,0.114 0,0.167 v 0.053 c -0.0019,0.035 -0.0019,0.069 0,0.103 0,0.068 0,0.129 0,0.186 0.0118,0.192 0.0042,0.384 -0.0228,0.575 -0.0471,0.29 -0.025,0.587 0.0647,0.867 0.269,0.842 0.6113,1.658 1.0229,2.441 0.1733,0.384 0.3257,0.778 0.4563,1.179 0.3802,0.167 0.8442,0.574 1.1027,1.566 0.4716,1.818 1.1788,6.845 1.1788,6.845 0,0 0.2852,3.076 0.848,3.776 0.5628,0.7 1.1408,5.076 -2.8786,5.635 -4.0193,0.559 -5.7571,-2.129 -5.7571,-2.129 l 0.1407,-12.199 v -0.023 c -0.0812,-0.102 -0.1513,-0.213 -0.2091,-0.33 v -0.031 c -0.0267,-0.057 -0.0571,-0.118 -0.0837,-0.186 l -0.0342,-0.091 -0.0609,-0.149 c 0.0022,-0.017 0.0022,-0.035 0,-0.053 -0.39,-1.168 -0.5071,-2.411 -0.3422,-3.631 v -0.061 -0.095 c 0,-0.031 0,-0.065 0,-0.095 v -0.191 c 0,-0.022 0,-0.049 0,-0.072 0,-0.081 -0.0076,-0.165 -0.0228,-0.251 0,0 0,-0.03 0,-0.045 l -0.0228,-0.149 v -0.064 c 0,-0.05 0,-0.099 -0.0304,-0.152 0.0014,-0.013 0.0014,-0.026 0,-0.039 -0.0381,-0.174 -0.0837,-0.38 -0.1331,-0.547 v -0.042 l -0.0571,-0.182 c -0.057,-0.194 -0.1216,-0.381 -0.1901,-0.586 v -0.038 c 0,-0.061 -0.0418,-0.122 -0.0646,-0.179 v -0.023 c -0.0685,-0.186 -0.1407,-0.38 -0.2092,-0.54 l -0.019,-0.049 -0.0608,-0.152 -0.0191,-0.046 -0.1445,-0.338 -1.1141,3.441 c 0,0 -0.616,2.563 -0.2852,3.168 0.3308,0.604 -0.3803,3.122 -0.848,3.167 l 0.4373,3.168 c 0.2364,1.746 0.3773,3.505 0.4221,5.266 0.0304,0.202 0.0608,0.381 0.0837,0.502 0.3042,1.624 -0.4259,4.141 -0.4259,4.141 -3.7266,4.408 -8.168,0.343 -8.168,0.343 0,0 -0.5171,-2.331 0,-2.795 0.5172,-0.464 0.2852,-2.145 0.2852,-2.145 0,0 -0.2357,-4.149 -0.2814,-7.175 -0.0456,-3.027 2.4755,-5.704 2.4755,-5.704 l 0.1407,0.125 c 0.4601,-1.186 0.9849,-2.57 0.8746,-3.19 -0.1901,-1.073 0.521,-12.393 0.521,-12.393 -0.2628,-3.035 -0.3187,-6.084 -0.1674,-9.126 -0.0608,-0.513 -0.1178,-1.019 -0.1749,-1.521 -0.2852,-2.434 -0.5171,-4.514 -0.6084,-5.605 v -0.129 c -0.0228,-0.293 -0.0342,-0.502 -0.0304,-0.601 0,-0.38 0,-0.814 -0.038,-1.289 -0.0875,-1.308 -0.2928,-2.765 -0.2928,-2.765 l -0.9887,-6.012 c 0,0 -0.7605,-2.935 -1.8443,-4.563 l -0.1292,-0.205 c -0.0419,-0.072 -0.0837,-0.152 -0.1293,-0.236 l -0.0191,-0.034 c -0.0418,-0.08 -0.0874,-0.164 -0.1293,-0.251 l -0.019,-0.034 c -0.1521,-0.301 -0.3156,-0.647 -0.4867,-1.027 0,-0.03 -0.0266,-0.057 -0.038,-0.087 l -0.1293,-0.289 c 0,-0.038 -0.0304,-0.076 -0.0494,-0.114 -0.019,-0.039 -0.0799,-0.194 -0.1217,-0.289 -0.0188,-0.039 -0.0353,-0.078 -0.0495,-0.118 -0.0494,-0.114 -0.1026,-0.232 -0.1521,-0.354 l -0.0722,-0.175 c -0.0342,-0.087 -0.0723,-0.175 -0.1103,-0.262 l -0.0912,-0.232 c -0.0267,-0.057 -0.0495,-0.114 -0.0723,-0.171 l -0.1027,-0.263 c 0,-0.038 -0.0342,-0.08 -0.0494,-0.118 -0.27,-0.673 -0.5286,-1.338 -0.7605,-1.943 -0.0723,-0.19 -0.1445,-0.38 -0.2092,-0.547 -2.4184,0.148 -4.0611,0.281 -4.0611,0.281 0,0 -0.7605,-5.449 -0.5172,-9.035 0.1597,-2.449 -0.2966,-5.529 -0.597,-7.225 -0.0342,-0.186 -0.0646,-0.353 -0.095,-0.506 l -0.0647,0.054 c -1.1826,0.931 -2.0306,-2.145 -2.0306,-2.145 0,0 0.3194,-2.871 0.7605,-6.35 l 0.0457,-0.346 c -0.6815,0.145 -1.371,0.25 -2.0648,0.315 0,0 -0.3803,-0.034 -0.9012,-0.099 -1.4411,0.835 -2.9622,1.523 -4.5403,2.054 l -2.5135,-4.639 c -0.4724,-0.962 -1.0258,-1.882 -1.6542,-2.75 -0.7605,-0.931 -3.4451,-3.912 -3.3995,-4.471 0.0456,-0.559 -0.8974,-3.776 -1.8404,-5.221 -0.9431,-1.445 -1.3195,-4.351 -1.2739,-4.583 z m 10.4799,3.541 c 0.9925,0.418 1.9355,2.749 1.9812,3.449 0.0456,0.699 1.0875,3.772 2.1713,4.144 1.0001,0.343 2.9089,2.099 3.2132,2.381 0.3118,0.026 0.6654,0.068 1.0343,0.129 0.4144,-2.939 0.8251,-5.373 1.0875,-5.863 0.7605,-1.4 -0.8328,-5.872 -0.8328,-5.872 0,0 -0.1559,-4.517 -1.1408,-5.589 -0.9848,-1.073 -0.7605,-3.776 -0.7605,-3.776 0,0 -0.2357,-1.118 -0.3308,-1.628 -0.0951,-0.509 -1.4031,0 -1.4145,0 0,0 -2.5478,1.396 -2.928,3.491 -0.3803,2.095 -3.1638,5.73 -3.1638,5.73 0,0 0.4259,1.259 0,1.902 -0.4259,0.642 0.0913,1.083 1.0837,1.502 z"
       fill="url(#paint0_linear)"
       id="path847" />
    <path
       d="m 97.752,167.885 c -0.7752,-1.279 -1.9101,-2.3 -3.2627,-2.938 -1.3527,-0.637 -2.8631,-0.861 -4.3425,-0.644 v 5.441 h 3.3044 l 2.5858,-0.654 z"
       fill="#4c4981"
       id="path849" />
    <path
       opacity="0.1"
       d="m 97.752,167.885 c -0.7752,-1.279 -1.9101,-2.3 -3.2627,-2.938 -1.3527,-0.637 -2.8631,-0.861 -4.3425,-0.644 v 5.441 h 3.3044 l 2.5858,-0.654 z"
       fill="#000000"
       id="path851" />
    <path
       d="m 89.8994,165.744 4.0498,2.837 c 0,0 0.0342,-0.567 0.1369,-1.343 0.2015,-1.467 0.654,-3.669 1.6313,-4.095 1.4868,-0.654 18.0396,-6.883 12.1686,-8.978 -5.872,-2.095 -14.8799,4.772 -14.8799,4.772 0,0 -0.4639,0.16 -1.2054,1.692 -0.3803,0.807 -0.9012,2.179 -1.2929,3.301 -0.3612,1.012 -0.6084,1.814 -0.6084,1.814 z"
       fill="#ae6e79"
       id="path853" />
    <path
       d="m 57.5478,170.113 -0.4602,-0.217 -1.2928,1.476 1.0571,2.255 1.8024,-0.723 -0.4183,-1.802 z"
       fill="#4c4981"
       id="path855" />
    <path
       d="m 63.6732,302.181 c 0,0 1.1636,-0.137 1.6275,1.677 0.4639,1.813 1.1636,6.844 1.1636,6.844 0,0 0.2776,3.069 0.8365,3.769 0.559,0.699 1.1142,5.069 -2.8367,5.624 -3.9509,0.555 -5.6734,-2.126 -5.6734,-2.126 l 0.1406,-12.195 z"
       fill="#444053"
       id="path857" />
    <path
       d="m 49.8851,302.728 c 0,0 -2.4869,2.662 -2.4413,5.681 0.0457,3.02 0.2814,7.161 0.2814,7.161 0,0 0.2282,1.677 -0.2814,2.141 -0.5095,0.463 0,2.791 0,2.791 0,0 4.373,4.057 8.0463,-0.343 0,0 0.7149,-2.513 0.4183,-4.133 -0.2966,-1.62 -1.1256,-8.902 -1.1256,-8.902 z"
       fill="#444053"
       id="path859" />
    <path
       d="m 43.7231,247.123 c 0,0 2.5097,7.02 3.582,8.647 1.0723,1.628 1.81,4.563 1.81,4.563 l 0.9773,5.997 c 0.1908,1.341 0.3,2.692 0.327,4.046 -0.0456,1.35 2.4185,21.017 2.4185,21.017 l 3.9052,4.977 c 0,0 1.7188,3.487 1.4412,4.944 -0.2776,1.456 0.1864,3.768 0.7605,4.464 0,0 0.0913,4.563 0.232,5.578 0.1407,1.016 -0.5133,3.909 0,4.419 0.5134,0.51 7.3466,0.281 7.5329,-0.559 0.1864,-0.84 -0.8365,-4.883 -0.8365,-4.883 l -0.6046,-3.905 c 0,0 -1.2093,-2.137 -0.9317,-2.836 0.2776,-0.7 -0.5095,-2.324 -0.5552,-2.465 -0.0456,-0.14 -1.3043,-2.418 -1.0723,-3.3 0.232,-0.882 -1.464,-19.644 -1.464,-19.644 l -4.7875,-33.619 z"
       fill="#ae6e79"
       id="path861" />
    <path
       opacity="0.1"
       d="m 43.7231,247.123 c 0,0 0.3802,1.057 0.9012,2.445 0.8289,2.191 2.023,5.206 2.6808,6.202 1.0685,1.628 1.8138,4.563 1.8138,4.563 l 0.9773,6.001 c 0.1889,1.341 0.2968,2.692 0.3232,4.046 0,0.532 0.3575,3.928 0.8138,7.841 0.7035,5.981 1.6047,13.176 1.6047,13.176 l 3.9052,4.977 c 0,0 0.1978,0.381 0.445,0.981 0.4905,1.141 1.1826,2.993 0.9962,3.947 -0.2776,1.442 0.1864,3.765 0.7605,4.465 0,0 0.0951,4.563 0.232,5.578 0.1369,1.015 -0.5133,3.905 0,4.419 0.5134,0.513 7.3466,0.281 7.5329,-0.556 0.1864,-0.836 -0.8365,-4.882 -0.8365,-4.882 l -0.6046,-3.909 c 0,0 -1.2093,-2.137 -0.9279,-2.837 0.2814,-0.699 -0.5133,-2.323 -0.559,-2.464 -0.0456,-0.141 -1.3043,-2.418 -1.0723,-3.301 0.1787,-0.673 -0.7605,-11.689 -1.1978,-16.913 -0.1483,-1.643 -0.2434,-2.712 -0.2434,-2.712 l -4.1182,-28.922 -0.3346,-2.331 -0.3346,-2.365 z"
       fill="#000000"
       id="path863" />
    <path
       d="m 47.9079,317.057 c -0.0418,0.513 6.5595,1.258 7.5025,0.699 0.943,-0.559 0,-7.487 0,-7.487 l -0.4297,-3.16 c 0.4601,-0.049 1.1598,-2.559 0.8366,-3.164 -0.3233,-0.604 0.2776,-3.16 0.2776,-3.16 l 1.0951,-3.422 0.6693,-2.095 c 1.0875,-2.4 2.6617,-9.244 3.639,-14.355 0.616,-3.209 1.0077,-5.738 0.9203,-6.061 -0.232,-0.837 0.3802,-6.929 0.3802,-6.929 0,0 0.7605,-6.186 1.7644,-8.137 0.6807,-1.293 2.0078,-6.149 2.8291,-9.282 0.4183,-1.609 0.7073,-2.765 0.7073,-2.765 0,0 -7.0272,-0.589 -11.2899,-0.795 -1.9583,-0.095 -3.3348,-0.106 -3.1751,0.054 0.1597,0.159 0.2015,1.011 0.1939,2.243 -0.019,3.191 -0.4639,8.803 -0.9354,10.313 -0.6503,2.091 -1.3005,8.366 -1.0229,8.974 0.2776,0.608 0.1863,4.65 0.1863,4.65 -0.4791,1.643 -0.755,3.337 -0.8214,5.047 -0.1487,3.028 -0.0953,6.063 0.1598,9.084 0,0 -0.6959,11.301 -0.5096,12.37 0.1863,1.068 -1.4868,4.418 -1.4868,5.069 0,0.65 -0.4639,5.068 -0.4639,5.068 0,0 -0.9963,6.731 -1.0267,7.241 z"
       fill="#ae6e79"
       id="path865" />
    <path
       d="m 44.2372,181.228 0.7985,0.863 0.5209,0.563 3.0421,3.27 7.8599,0.886 4.1829,-1.118 1.0343,-0.277 c 0,0 0,-2.099 -0.1863,-4.617 -0.2662,-3.228 -0.9012,-7.148 -2.4185,-8.217 -0.7597,-0.595 -1.3661,-1.363 -1.7682,-2.24 -0.3035,-0.604 -0.5578,-1.233 -0.7605,-1.878 -0.0304,-0.084 -0.0532,-0.164 -0.0799,-0.247 -0.3422,-1.127 -0.5889,-2.281 -0.7377,-3.449 0,0 -1.0038,-0.555 -2.3994,-1.202 -3.6391,-1.7 -9.9247,-4.046 -7.7382,1.202 0.3213,0.768 0.5956,1.556 0.8213,2.357 0.0342,0.118 0.0647,0.236 0.0913,0.35 0.7301,2.921 0.2472,4.693 -0.2966,5.67 -0.0919,0.169 -0.1975,0.331 -0.3156,0.483 -0.1486,0.204 -0.3267,0.384 -0.5286,0.536 l -0.905,5.746 -0.0761,0.475 z"
       fill="#ae6e79"
       id="path867" />
    <path
       opacity="0.1"
       d="m 45.5838,165.048 c 0.4145,0.996 -0.2015,-0.814 0,0 1.6579,1.179 5.5632,4.537 7.7573,4.537 1.483,0 1.9279,-0.27 3.198,-0.845 -0.3844,-1.203 -0.6581,-2.439 -0.8176,-3.692 0,0 -13.1607,-7.255 -10.1377,0 z"
       fill="#000000"
       id="path869" />
    <path
       d="m 42.2324,158.937 c 0.0021,2.505 0.9302,4.92 2.6059,6.781 1.6757,1.861 3.9805,3.036 6.4709,3.3 0.3498,0.034 0.7035,0.057 1.0609,0.057 2.0051,0 3.9651,-0.595 5.6322,-1.708 1.6671,-1.114 2.9665,-2.698 3.7338,-4.55 0.7673,-1.853 0.9681,-3.891 0.5769,-5.857 -0.3912,-1.967 -1.3567,-3.773 -2.7745,-5.191 -1.4177,-1.418 -3.2241,-2.383 -5.1906,-2.775 -1.9665,-0.391 -4.0049,-0.19 -5.8573,0.577 -1.8524,0.768 -3.4357,2.067 -4.5496,3.734 -1.114,1.667 -1.7086,3.627 -1.7086,5.632 z"
       fill="#ae6e79"
       id="path871" />
    <path
       opacity="0.1"
       d="m 40.7914,203.876 1.4449,3.769 c 0,0 1.175,0.049 3.0079,0.106 6.1868,0.198 19.8191,0.449 20.4275,-1.141 0.1364,-0.403 0.2083,-0.825 0.2129,-1.251 0.0799,-2.422 -1.0495,-6.141 -1.0495,-6.141 0,0 -0.6502,-7.442 -0.6502,-7.765 0,-0.323 0.559,-5.536 0.559,-5.536 l -1.118,-4.183 -3.1143,-2.187 c 0,0 -1.3956,2.141 -2.2321,2.324 -0.8366,0.182 -1.9546,1.213 -1.9546,1.213 0,0 -2.7416,1.673 -3.6276,0.741 -0.886,-0.931 -7.7649,-5.023 -7.7649,-5.023 l -3.6277,4 z"
       fill="#000000"
       id="path873" />
    <path
       d="m 40.793,204.454 1.445,3.765 c 0,0 1.175,0.053 3.0078,0.11 h 0.1788 c 0.7909,0.027 1.6959,0.053 2.6618,0.072 4.9167,0.114 11.6891,0.145 15.2293,-0.38 1.3309,-0.19 2.2017,-0.464 2.3462,-0.836 0.0802,-0.225 0.1362,-0.457 0.1673,-0.693 0.0228,-0.174 0.0381,-0.38 0.0457,-0.559 0.0798,-2.422 -1.0496,-6.141 -1.0496,-6.141 0,0 -0.6502,-7.441 -0.6502,-7.765 0,-0.323 0.559,-5.536 0.559,-5.536 l -1.118,-4.183 -2.1408,-1.498 -0.9735,-0.685 c -0.3274,0.49 -0.6843,0.96 -1.0685,1.407 -0.3001,0.403 -0.7016,0.719 -1.1636,0.917 -0.8404,0.186 -1.9545,1.213 -1.9545,1.213 0,0 -2.7417,1.673 -3.6277,0.741 -0.6731,-0.711 -4.8559,-3.27 -6.7876,-4.437 -0.5932,-0.362 -0.9773,-0.586 -0.9773,-0.586 l -0.4867,0.54 -3.1409,3.46 z"
       fill="#ffffff"
       id="path875" />
    <path
       opacity="0.1"
       d="m 89.8993,165.744 4.0497,2.837 c 0,0 0.0343,-0.567 0.1369,-1.343 -2.0001,-0.844 -3.217,-2.711 -3.5668,-3.308 -0.3727,1.012 -0.6198,1.814 -0.6198,1.814 z"
       fill="#000000"
       id="path877" />
    <path
       d="m 75.669,175.372 0.8822,-0.236 c 0,0 1.445,1.521 2.2816,1.723 0.8365,0.201 2.6009,1.346 2.6009,1.346 l 2.0496,1.627 c 0,0 1.521,0.236 1.0685,-0.836 -0.4525,-1.072 0.8366,-2.419 0.8366,-2.419 0,0 2.6048,-5.346 2.6048,-6.464 0,-1.118 2.1523,-5.81 2.1523,-5.81 0,0 2.6998,5.255 7.6279,3.582 0,0 -3.582,8.042 -3.6732,10.042 -0.0913,2.001 -2.4641,7.579 -2.4641,7.579 0,0 -0.886,4.141 -5.6735,3.909 0,0 -6.6051,1.228 -8.0463,0 -1.4411,-1.228 -2.7416,-2.194 -3.4223,-2.335 -0.6806,-0.14 -1.3005,-0.928 -1.3005,-0.928 v -5.529 z"
       fill="#4c4981"
       id="path879" />
    <path
       opacity="0.1"
       d="m 83.9473,180.623 c 0,0 -1.1636,4.328 -0.4183,4.792 z"
       fill="#000000"
       id="path881" />
    <path
       opacity="0.1"
       d="m 45.2463,208.31 c 6.1868,0.198 19.8191,0.445 20.4275,-1.141 0.1364,-0.403 0.2083,-0.825 0.2129,-1.251 l -20.2107,1.065 z"
       fill="#000000"
       id="path883" />
    <path
       opacity="0.1"
       d="m 43.7248,247.123 c 0,0 0.3802,1.057 0.9012,2.445 2.5668,-0.156 5.9663,-0.319 9.1947,-0.342 1.1407,0 2.2587,0 3.3158,0.038 2.2436,0.068 4.1829,0.251 5.4187,0.601 1.5626,0.481 3.1958,0.692 4.8293,0.623 0.4183,-1.608 0.7073,-2.764 0.7073,-2.764 0,0 -7.0272,-0.589 -11.2899,-0.795 l -0.3346,-2.365 z"
       fill="#000000"
       id="path885" />
    <path
       d="m 38.2815,230.103 0.7909,1.673 c 0,0 0.1103,0.498 0.251,1.289 0.2966,1.703 0.7605,4.776 0.5856,7.225 -0.2319,3.582 0.5133,9.02 0.5133,9.02 0,0 17.1117,-1.442 22.1311,0 5.0194,1.441 7.4911,0 7.4911,0 0,0 -0.6084,-5.393 0.8822,-8.184 1.0153,-1.901 1.7302,-10.388 1.753,-15.97 0,-2.575 -0.1293,-4.526 -0.4525,-4.921 -1.0229,-1.255 -5.3921,-13.811 -5.3921,-13.811 l -0.9963,0.053 -2.6618,0.141 -15.1343,0.798 -2.3766,0.126 -0.251,0.76 z"
       fill="#444053"
       id="path887" />
    <path
       d="m 30.7503,224.521 -0.1407,1.49 c 0,0 7.4949,-2.441 7.1147,-5.441 -0.3803,-3.001 0,-2.662 0,-2.662 l -6.0233,0.509 z"
       fill="#4c4981"
       id="path889" />
    <path
       opacity="0.1"
       d="m 30.7503,224.521 -0.1407,1.49 c 0,0 7.4949,-2.441 7.1147,-5.441 -0.3803,-3.001 0,-2.662 0,-2.662 l -6.0233,0.509 z"
       fill="#000000"
       id="path891" />
    <path
       opacity="0.1"
       d="m 78.947,181.825 c -0.7652,0.65 -1.6673,1.119 -2.639,1.373 0.2814,-0.061 0.5429,-0.192 0.7605,-0.38 0.5362,-0.381 1.0457,-0.795 1.5629,-1.198 0.4183,-0.327 0.9392,-0.871 1.4526,-1.004 -0.3361,0.441 -0.7171,0.846 -1.137,1.209 z"
       fill="#000000"
       id="path893" />
    <path
       opacity="0.1"
       d="m 78.8349,183.783 c -0.2411,0.273 -0.4363,0.582 -0.578,0.917 -0.24,0.946 -0.2255,1.939 0.0418,2.878 l 1.2016,-2.897 c 0.2091,-0.494 0.4183,-0.989 0.6693,-1.46 0.1102,-0.202 0.8023,-1.042 0.7224,-1.217 -0.2129,-0.494 -1.8328,1.502 -2.0571,1.779 z"
       fill="#000000"
       id="path895" />
    <path
       opacity="0.1"
       d="m 45.3051,199.83 c -0.8192,-0.099 -1.5853,-0.457 -2.1865,-1.023 1.2358,0.156 2.407,0.643 3.6238,0.898 1.1298,0.262 2.3141,0.153 3.3767,-0.312 -1.3993,0.684 -3.3234,0.707 -4.814,0.437 z"
       fill="#000000"
       id="path897" />
    <path
       opacity="0.1"
       d="m 48.802,191.316 c 0.2215,0.033 0.447,-0.023 0.6274,-0.156 0.9278,-0.532 1.843,-1.087 2.7454,-1.665 0.8784,-0.567 1.9394,-1.141 2.6885,-1.856 -1.8443,1.666 -3.563,3.073 -6.0613,3.677 z"
       fill="#000000"
       id="path899" />
    <path
       opacity="0.1"
       d="m 46.2213,201.18 c -0.4873,0.022 -0.9753,-0.017 -1.4526,-0.118 -0.4829,-0.1 -0.9096,-0.38 -1.194,-0.783 0.1725,-0.04 0.3538,-0.011 0.5057,0.08 1.4734,0.62 3.0914,0.814 4.6696,0.559 -0.7567,0.323 -1.7264,0.258 -2.5287,0.262 z"
       fill="#000000"
       id="path901" />
    <path
       opacity="0.1"
       d="m 55.0294,222.771 c 0.9682,0.292 1.9631,0.487 2.9698,0.582 0.7835,0.036 1.5686,0.021 2.35,-0.046 l 3.8026,-0.239 1.9013,-0.122 c 0.2244,0 1.1408,0 0.6883,-0.452 -0.2282,-0.221 -1.4982,-0.08 -1.8252,-0.092 -0.6313,-0.02 -1.265,-0.031 -1.9013,-0.034 -1.2587,0 -2.5212,0 -3.7798,0.076 -1.4108,0.069 -2.7987,0.175 -4.2057,0.327 z"
       fill="#000000"
       id="path903" />
    <path
       opacity="0.1"
       d="m 59.4367,224.654 c 0.6465,-0.027 1.4792,0.357 2.1447,0.441 0.7444,0.088 1.4945,0.117 2.2435,0.087 1.4821,-0.035 2.946,-0.334 4.3235,-0.882 -2.9013,0.148 -5.8103,0.236 -8.7117,0.354 z"
       fill="#000000"
       id="path905" />
    <path
       opacity="0.1"
       d="m 67.5802,226.646 c -0.2812,0.057 -0.5582,0.133 -0.829,0.228 -1.6046,0.457 -3.312,0.054 -4.9433,-0.349 0.4069,0.612 1.1408,0.874 1.8747,1.041 1.1936,0.303 2.4379,0.348 3.6505,0.134 0.3802,-0.076 1.3347,-0.213 1.521,-0.609 0.3118,-0.582 -0.9164,-0.502 -1.2739,-0.445 z"
       fill="#000000"
       id="path907" />
    <path
       opacity="0.1"
       d="m 58.5847,229.646 c -0.4811,0.099 -0.956,0.226 -1.4221,0.381 -1.8062,0.448 -3.6809,-0.168 -5.4947,-0.582 -2.1805,-0.495 -4.4165,-0.702 -6.6507,-0.616 0.3992,0 1.0343,0.35 1.4259,0.468 0.5134,0.155 1.0343,0.3 1.5553,0.429 1.0229,0.251 2.061,0.457 3.1067,0.605 2.111,0.305 4.2473,0.398 6.3769,0.277 0.9735,-0.053 2.6618,0.046 3.4946,-0.444 -0.7199,-0.428 -1.5596,-0.61 -2.3919,-0.518 z"
       fill="#000000"
       id="path909" />
    <path
       opacity="0.1"
       d="m 57.9028,172.296 c 0,0 -0.0912,4.281 0.6046,6.236 0.2206,0.608 0.5628,1.73 0.9355,2.989 0.4069,1.395 0.8518,2.958 1.194,4.183 0.3422,1.224 0.5704,2.045 0.5704,2.045 0,0 1.5704,12.792 1.9773,18.888 0,0.106 0,0.217 0.0228,0.319 0.0228,0.343 0.0609,0.7 0.1179,1.069 0.905,6.054 6.126,15.389 7.879,16.134 0.5466,0.251 1.0458,0.595 1.4754,1.016 0,-2.575 -0.1293,-4.526 -0.4525,-4.921 -1.0229,-1.255 -5.3921,-13.811 -5.3921,-13.811 l -0.9963,0.053 c 0.0229,-0.175 0.0381,-0.38 0.0457,-0.559 0.0798,-2.422 -1.0496,-6.141 -1.0496,-6.141 0,0 -0.6502,-7.442 -0.6502,-7.765 0,-0.323 0.559,-5.536 0.559,-5.536 l -1.118,-4.183 -2.1408,-1.498 c -0.2662,-3.229 -0.9012,-7.149 -2.4185,-8.218 -0.7597,-0.595 -1.3661,-1.363 -1.7682,-2.24 -0.3004,0.042 0.2472,-0.224 0.2472,-0.224 z"
       fill="#000000"
       id="path911" />
    <path
       d="m 57.0871,169.896 c 0.3876,-0.132 0.7997,-0.177 1.2068,-0.131 0.407,0.046 0.7988,0.182 1.147,0.398 1.0723,0.76 3.1637,0.695 3.7227,0.559 0.559,-0.137 6.3693,-0.886 6.8446,-0.7 0.4754,0.186 1.3956,-0.65 2.0002,0.468 0.6046,1.118 0.8822,1.718 1.4868,1.996 0.6046,0.278 1.677,1.164 1.5211,1.35 -0.1559,0.186 1.521,1.3 1.521,1.3 l -3.3919,11.028 c 0,0 2.1865,13.948 3.255,15.157 1.0685,1.209 10.556,16.88 7.1603,19.671 -2.6884,2.114 -5.5333,4.02 -8.5102,5.704 -0.3803,0.186 -1.7188,-2.324 -3.5783,-3.115 -1.8594,-0.791 -7.6279,-11.255 -7.9854,-17.206 -0.3574,-5.951 -2.0001,-19.204 -2.0001,-19.204 0,0 -2.0002,-7.255 -2.6961,-9.209 -0.6959,-1.955 -0.6046,-6.237 -0.6046,-6.237 z"
       fill="#4c4981"
       id="path913" />
    <path
       opacity="0.1"
       d="m 38.2816,230.103 0.7909,1.673 c 0,0 0.1103,0.498 0.251,1.289 0.141,-0.018 0.2734,-0.077 0.3802,-0.171 1.1636,-0.932 7.9855,-7.951 8.3239,-14.184 0.2396,-4.597 0.1255,-8.559 0.0494,-10.324 -0.0228,-0.555 -0.0456,-0.89 -0.0456,-0.962 0,0 -5.3008,-6.419 -4.6962,-8.692 0.6046,-2.274 2.0002,-14.45 2.0002,-14.45 l 0.2053,-1.597 0.3537,-2.7 0.8441,-6.533 -0.8746,0.205 c -0.1485,0.204 -0.3266,0.385 -0.5285,0.536 l -0.905,5.746 -3.141,3.46 -0.5133,21.067 1.445,3.764 c 0,0 1.175,0.054 3.0078,0.111 h 0.1787 z"
       fill="#000000"
       id="path915" />
    <path
       d="m 35.3548,195.328 c 0,0 1.3005,-0.513 1.3918,0 0.0912,0.513 0.327,1.624 0.327,1.624 0,0 -0.232,2.7 0.7605,3.768 0.9925,1.069 1.1408,5.578 1.1408,5.578 0,0 1.5666,4.465 0.8251,5.86 -0.27,0.506 -0.6882,3.042 -1.1065,6.084 -0.2662,1.902 -0.5286,3.989 -0.7605,5.898 -0.4221,3.468 -0.7377,6.339 -0.7377,6.339 0,0 0.8403,3.069 2.0039,2.137 1.1636,-0.931 7.9855,-7.951 8.3201,-14.183 0.2281,-4.377 0.1369,-8.18 0.0608,-10.055 -0.0304,-0.794 -0.0608,-1.243 -0.0608,-1.243 0,0 -5.3008,-6.419 -4.6962,-8.696 0.6046,-2.278 2.0001,-14.45 2.0001,-14.45 l 0.2434,-1.883 0.2624,-2.023 0.0608,-0.444 0.8404,-6.465 c -0.1483,0.034 -5.3654,1.213 -6.0537,1.901 -0.6883,0.689 -4.9434,1.674 -4.9434,1.674 -0.6417,0.174 -1.2251,0.517 -1.6892,0.993 -0.4641,0.476 -0.7921,1.068 -0.9498,1.714 -0.0418,0.129 -0.0722,0.266 -0.1026,0.407 -0.559,2.7 -0.3803,3.023 -0.7606,3.491 -0.3802,0.467 3.6239,11.974 3.6239,11.974 z"
       fill="#4c4981"
       id="path917" />
    <path
       opacity="0.1"
       d="m 37.9032,224.136 c 1.9013,-0.38 4.7229,-1.258 4.6582,-3.198 -0.057,-1.813 -2.2397,-2.467 -3.8938,-2.699 -0.2662,1.893 -0.5286,3.989 -0.7644,5.897 z"
       fill="#000000"
       id="path919" />
    <path
       d="m 32.0058,223.171 c 0.076,0.163 0.3803,0.304 0.8138,0.429 1.0171,0.242 2.0502,0.411 3.0915,0.506 0,0 6.4644,-0.513 6.3731,-3.445 -0.0684,-2.103 -2.9888,-2.662 -4.6277,-2.787 -0.3628,-0.034 -0.7271,-0.049 -1.0914,-0.046 0,0 -4.8369,4.742 -4.5593,5.343 z"
       fill="#ae6e79"
       id="path921" />
    <path
       opacity="0.1"
       d="m 32.0054,223.171 c 0.076,0.163 0.3802,0.304 0.8137,0.429 1.6846,-2.255 4.0346,-5.148 5.1868,-5.403 l -0.3499,-0.323 c -0.3627,-0.034 -0.727,-0.049 -1.0913,-0.046 0,0 -4.8369,4.742 -4.5593,5.343 z"
       fill="#000000"
       id="path923" />
    <path
       d="m 33.633,183.042 -1.9013,0.281 c -0.6864,1.209 -1.4484,2.374 -2.2815,3.487 -0.5109,0.635 -0.8042,1.418 -0.8366,2.232 0,0 -2.7911,4.138 -3.6733,4.601 -0.8822,0.464 -2.2321,3.628 -2.2321,3.628 0,0 -2.1865,1.441 -2.1865,3.069 -0.0387,1.357 -0.1786,2.709 -0.4183,4.046 -0.0494,0.232 0.3232,3.118 1.2549,4.563 0.9316,1.445 1.8632,4.631 1.8138,5.202 -0.0494,0.57 2.6048,3.536 3.3463,4.464 0.6189,0.868 1.1633,1.786 1.6275,2.746 l 2.4641,4.65 c 0,0 5.2095,-7.674 7.1146,-8.092 0,0 -2.137,-2.046 -3.2056,-2.418 -1.0685,-0.373 -2.0952,-3.423 -2.1408,-4.137 -0.0457,-0.715 -0.9773,-3.024 -1.9508,-3.423 -0.9734,-0.399 -1.4906,-0.836 -1.0723,-1.49 0.4183,-0.654 0,-1.902 0,-1.902 0,0 2.7455,-3.627 3.1181,-5.704 0.3727,-2.076 2.8824,-3.487 2.8824,-3.487 l 1.4412,-3.536 z"
       fill="#4c4981"
       id="path925" />
    <path
       opacity="0.1"
       d="m 26.7137,200.401 c -1.0521,-0.889 -2.3765,-1.39 -3.7531,-1.422 0.8822,0.152 1.81,0.346 2.4564,0.962 0.254,0.266 0.4819,0.557 0.6807,0.867 0.2205,0.315 2.0153,2.597 2.2815,2.236 0.4449,-0.529 -1.3043,-2.335 -1.6655,-2.643 z"
       fill="#000000"
       id="path927" />
    <path
       opacity="0.1"
       d="m 30.9277,198.199 c -0.2847,-0.024 -0.5577,-0.124 -0.7909,-0.289 -0.2333,-0.166 -0.4183,-0.39 -0.5362,-0.65 -0.2267,-0.524 -0.3667,-1.081 -0.4144,-1.65 -0.1361,-0.953 -0.3278,-1.896 -0.5742,-2.826 -0.074,-0.184 -0.1052,-0.382 -0.0914,-0.579 0.0139,-0.198 0.0724,-0.39 0.1712,-0.562 0.1021,-0.297 0.24,-0.58 0.4107,-0.844 0.3422,0.381 0.4411,1.267 0.5818,1.776 0.1749,0.631 0.3346,1.266 0.4867,1.901 0.0799,0.305 0.7111,3.723 0.7567,3.723 z"
       fill="#000000"
       id="path929" />
    <path
       opacity="0.1"
       d="m 32.5757,179.426 c 0.1874,0.245 0.4031,0.467 0.6426,0.661 0.7605,0.605 1.7682,1.114 1.8633,2.069 -0.0265,0.31 0.0123,0.622 0.114,0.916 0.2434,0.419 0.8404,0.38 1.3157,0.301 0.4012,-0.037 0.7856,-0.178 1.1142,-0.411 0.4981,-0.426 0.5438,-1.186 0.924,-1.723 0.2311,-0.276 0.5228,-0.496 0.8525,-0.642 0.3297,-0.146 0.6886,-0.213 1.0488,-0.198 0.7111,-0.023 1.4184,0.137 2.1295,0.167 0.457,0.023 0.9152,-0.007 1.3651,-0.091 0.1485,-0.023 0.2957,-0.053 0.4411,-0.091 0.3178,-0.078 0.6282,-0.184 0.9278,-0.316 0.1551,-0.061 0.3062,-0.133 0.4525,-0.213 0.476,-0.244 0.9172,-0.551 1.3119,-0.912 0.6959,-0.639 1.2739,-1.521 1.2168,-2.468 -0.0342,-0.582 -0.2966,-1.118 -0.3802,-1.692 -0.2852,-1.643 0.8061,-3.195 1.9887,-4.37 0.4716,-0.467 0.9735,-0.92 1.445,-1.395 0.7342,-0.677 1.314,-1.505 1.6998,-2.426 0.3172,-0.981 0.4209,-2.018 0.3042,-3.042 -0.1069,-1.039 -0.1361,-2.083 -0.0875,-3.126 0.3499,-3.696 3.506,-6.529 6.6622,-8.069 l 0.1407,-0.072 c -0.9364,-1.075 -2.0888,-1.94 -3.3821,-2.539 -1.2934,-0.599 -2.6985,-0.918 -4.1236,-0.937 -1.4251,-0.019 -2.8382,0.263 -4.147,0.827 -1.3088,0.565 -2.4838,1.399 -3.4483,2.448 -0.9646,1.049 -1.697,2.29 -2.1493,3.642 -0.4523,1.351 -0.6145,2.783 -0.4759,4.202 0.1386,1.418 0.5749,2.791 1.2803,4.03 0.7054,1.238 1.6642,2.314 2.8136,3.157 0.0342,0.118 0.0646,0.236 0.0912,0.35 0.7301,2.92 0.2472,4.692 -0.2966,5.669 -0.1483,0.035 -5.3654,1.213 -6.0537,1.902 -0.6882,0.688 -4.9433,1.673 -4.9433,1.673 -0.6467,0.172 -1.235,0.515 -1.7028,0.994 -0.4678,0.478 -0.7978,1.074 -0.9552,1.725 z"
       fill="#000000"
       id="path931" />
    <path
       d="m 60.7366,149.602 c -0.2091,-0.24 -0.5247,-0.361 -0.7377,-0.593 -0.6578,-0.715 0,-1.883 -0.2395,-2.826 -0.2586,-1.045 -1.5439,-1.502 -2.6162,-1.391 -1.0723,0.11 -2.0762,0.604 -3.1486,0.726 -1.6655,0.186 -3.2778,-0.536 -4.9015,-0.958 -1.6237,-0.422 -3.5858,-0.445 -4.7038,0.798 -1.118,1.244 -1.0419,3.362 -2.4336,4.263 -0.6427,0.414 -1.4526,0.46 -2.1485,0.76 -0.7615,0.391 -1.393,0.995 -1.8176,1.738 -1.1016,1.73 -1.5867,3.782 -1.3766,5.822 0.1179,1.103 0.4373,2.175 0.5666,3.278 0.1312,1.145 0.0539,2.305 -0.2282,3.422 -0.2928,1.141 -0.9278,2.373 -2.0648,2.738 -0.2628,0.058 -0.518,0.146 -0.7605,0.262 -0.6578,0.411 -0.5704,1.377 -0.4031,2.13 l 0.6769,3.122 c -0.6502,0.494 -1.6617,0.281 -2.2815,0.802 -0.2484,0.227 -0.4321,0.516 -0.5324,0.837 -0.3057,0.873 -0.3389,1.818 -0.0951,2.71 0.2438,0.893 0.753,1.69 1.4602,2.286 0.7605,0.605 1.7682,1.114 1.8633,2.065 -0.029,0.31 0.0099,0.623 0.1141,0.917 0.2395,0.418 0.8403,0.38 1.3157,0.3 0.3998,-0.037 0.7828,-0.179 1.1103,-0.411 0.502,-0.426 0.5438,-1.186 0.924,-1.722 0.2315,-0.277 0.5233,-0.496 0.8529,-0.642 0.3296,-0.145 0.6883,-0.214 1.0484,-0.199 0.7149,-0.023 1.4184,0.137 2.1333,0.171 1.6488,0.068 3.2584,-0.514 4.4832,-1.619 0.6997,-0.643 1.2739,-1.522 1.2207,-2.472 -0.0342,-0.578 -0.2966,-1.118 -0.3803,-1.692 -0.2814,-1.639 0.8062,-3.194 1.9888,-4.369 1.1826,-1.175 2.5705,-2.259 3.1485,-3.822 0.7225,-1.936 0.0228,-4.095 0.2168,-6.149 0.3498,-3.7 3.5021,-6.529 6.6621,-8.073 0.7035,-0.361 1.9013,-1.277 1.0837,-2.209 z"
       fill="#444053"
       id="path933" />
    <path
       opacity="0.1"
       d="m 35.8671,181.536 c 0.5019,-0.43 0.5437,-1.186 0.924,-1.723 0.2314,-0.276 0.5231,-0.496 0.8527,-0.642 0.3295,-0.147 0.6882,-0.215 1.0486,-0.202 0.7149,-0.022 1.4221,0.137 2.1332,0.171 1.6549,0.073 3.2715,-0.51 4.4985,-1.623 0.6997,-0.639 1.2701,-1.521 1.2168,-2.468 -0.0342,-0.582 -0.2966,-1.122 -0.3802,-1.692 -0.2852,-1.643 0.8061,-3.198 1.9887,-4.373 1.1826,-1.175 2.5668,-2.259 3.1486,-3.822 0.7186,-1.932 0,-4.091 0.2129,-6.149 0.3536,-3.7 3.506,-6.529 6.6621,-8.073 0.7377,-0.361 1.9355,-1.277 1.118,-2.209 -0.2054,-0.239 -0.521,-0.361 -0.7339,-0.593 -0.6579,-0.711 0,-1.882 -0.2434,-2.822 -0.0468,-0.187 -0.128,-0.363 -0.2396,-0.521 0.7948,0.149 1.5211,0.597 1.715,1.358 0.232,0.943 -0.4183,2.11 0.2396,2.825 0.2129,0.232 0.5285,0.354 0.7377,0.59 0.8175,0.931 -0.3803,1.852 -1.118,2.209 -3.1599,1.544 -6.3123,4.377 -6.6621,8.073 -0.1939,2.057 0.5057,4.217 -0.2167,6.153 -0.578,1.559 -1.966,2.661 -3.1486,3.821 -1.1826,1.16 -2.2815,2.727 -1.9887,4.369 0.1602,0.556 0.2872,1.121 0.3802,1.692 0.0533,0.947 -0.5209,1.829 -1.2206,2.468 -1.2252,1.114 -2.8409,1.697 -4.4947,1.624 -0.7149,-0.034 -1.4183,-0.19 -2.1332,-0.171 -0.3603,-0.014 -0.7189,0.055 -1.0485,0.202 -0.3295,0.146 -0.6212,0.366 -0.8528,0.642 -0.3803,0.536 -0.4221,1.297 -0.924,1.723 -0.328,0.23 -0.7109,0.371 -1.1104,0.407 -0.4753,0.087 -1.0761,0.117 -1.3157,-0.297 -0.0853,-0.169 -0.1222,-0.359 -0.1065,-0.548 0.3826,-0.037 0.7486,-0.175 1.061,-0.399 z"
       fill="#000000"
       id="path935" />
    <path
       d="M 116.737,155 H 94.3127 v -22.004 h 22.4413 z m -0.324,-33.177 H 94.6369 c 0,-34.1941 32.6401,-32.1958 32.6401,-53.8286 0,-11.9156 -9.794,-21.4617 -21.76,-21.4617 -11.9661,0 -21.7569,10.2918 -21.7569,21.8007 h -21.76 C 61.9902,62.64 63.1091,57.0007 65.2926,51.7389 67.476,46.477 70.6811,41.6961 74.724,37.6703 c 4.0428,-4.0258 8.844,-7.2174 14.1282,-9.3916 5.2841,-2.1742 10.9473,-3.2884 16.6648,-3.2786 24.036,0 43.517,19.0953 43.517,42.9943 0,27.0498 -32.637,30.1296 -32.637,53.8286 z"
       fill="#83a85e"
       id="path937" />
    <path
       opacity="0.1"
       d="m 39.2444,302.715 h 3.4944 v -3.442 h -3.4944 z m 0.0526,-5.187 h 3.3892 c 0,-5.349 -5.0862,-5.033 -5.0862,-8.418 0.0064,-0.893 0.3668,-1.747 1.0023,-2.374 0.6355,-0.627 1.4939,-0.977 2.3869,-0.972 0.8968,0.017 1.7517,0.383 2.3841,1.019 0.6324,0.636 0.9928,1.493 1.0051,2.389 h 3.3892 c -0.0396,-1.766 -0.7673,-3.447 -2.0282,-4.685 -1.2609,-1.238 -2.9553,-1.934 -4.7222,-1.941 -1.7669,-0.007 -3.4666,0.676 -4.7371,1.904 -1.2704,1.228 -2.0112,2.904 -2.0645,4.67 -0.0191,4.221 5.0623,4.704 5.0623,8.408 z"
       fill="#83a85e"
       id="path947" />
  </g>
  <defs
     id="defs956">
    <linearGradient
       gradientUnits="userSpaceOnUse"
       y2="143.959"
       x2="64.1987"
       y1="322.20499"
       x1="64.1987"
       id="paint0_linear">
      <stop
         id="stop949"
         stop-opacity="0.25"
         stop-color="#808080" />
      <stop
         id="stop951"
         stop-opacity="0.12"
         stop-color="#808080"
         offset="0.54" />
      <stop
         id="stop953"
         stop-opacity="0.1"
         stop-color="#808080"
         offset="1" />
    </linearGradient>
  </defs>
</svg>
