<svg width="394" height="280" viewBox="0 0 394 280" fill="none" xmlns="http://www.w3.org/2000/svg">
<g clip-path="url(#clip0)">
<path d="M51.1025 258.613L50.0946 254.637C48.3073 253.88 46.4787 253.224 44.6175 252.672L44.4902 254.52L43.9741 252.485C41.666 251.825 40.0957 251.535 40.0957 251.535C40.0957 251.535 42.2168 259.601 46.6655 265.767L51.8493 266.678L47.8221 267.258C48.382 267.932 48.9836 268.569 49.6235 269.167C56.0952 275.175 63.3034 277.931 65.7235 275.323C68.1437 272.716 64.8592 265.733 58.3876 259.726C56.2832 257.863 53.9058 256.335 51.3382 255.193L51.1025 258.613Z" fill="#E6E6E6"/>
<path d="M60.6904 254.296L61.8826 250.371C60.7441 248.799 59.5178 247.292 58.2097 245.858L57.1456 247.374L57.756 245.365C56.1208 243.608 54.9267 242.547 54.9267 242.547C54.9267 242.547 52.5732 250.548 53.1942 258.126L57.161 261.585L53.4135 260.001C53.5446 260.867 53.7301 261.724 53.9688 262.566C56.4038 271.054 61.1497 277.139 64.5691 276.158C67.9886 275.177 68.7867 267.501 66.3517 259.014C65.5129 256.332 64.2679 253.794 62.6601 251.49L60.6904 254.296Z" fill="#E6E6E6"/>
<path d="M132.751 257.647L131.804 253.911C130.124 253.199 128.406 252.582 126.656 252.064L126.537 253.8L126.052 251.887C123.882 251.268 122.406 250.995 122.406 250.995C122.406 250.995 124.4 258.576 128.581 264.371L133.453 265.227L129.668 265.773C130.194 266.406 130.76 267.005 131.361 267.567C137.444 273.213 144.219 275.803 146.494 273.353C148.768 270.902 145.681 264.339 139.599 258.693C137.621 256.943 135.386 255.506 132.973 254.433L132.751 257.647Z" fill="#E6E6E6"/>
<path d="M141.763 253.59L142.883 249.901C141.813 248.423 140.661 247.007 139.431 245.659L138.431 247.084L139.005 245.196C137.468 243.544 136.346 242.547 136.346 242.547C136.346 242.547 134.134 250.067 134.717 257.19L138.446 260.441L134.923 258.952C135.047 259.766 135.221 260.571 135.445 261.363C137.734 269.34 142.195 275.06 145.408 274.138C148.622 273.216 149.372 266.001 147.084 258.024C146.295 255.503 145.125 253.118 143.614 250.952L141.763 253.59Z" fill="#E6E6E6"/>
<path d="M291.881 259.66L291.404 257.777C290.557 257.419 289.691 257.108 288.81 256.847L288.749 257.722L288.505 256.758C287.412 256.446 286.668 256.308 286.668 256.308C287.34 258.706 288.391 260.981 289.78 263.049L292.235 263.48L290.327 263.755C290.593 264.074 290.878 264.376 291.181 264.659C294.246 267.504 297.66 268.81 298.806 267.575C299.952 266.34 298.397 263.032 295.331 260.187C294.335 259.305 293.209 258.581 291.993 258.04L291.881 259.66Z" fill="#E6E6E6"/>
<path d="M296.422 257.615L296.986 255.757C296.447 255.012 295.866 254.298 295.247 253.619L294.743 254.337L295.032 253.385C294.257 252.553 293.692 252.051 293.692 252.051C293.028 254.451 292.751 256.942 292.871 259.43L294.75 261.068L292.975 260.317C293.037 260.728 293.125 261.133 293.238 261.532C294.391 265.552 296.639 268.435 298.259 267.97C299.878 267.505 300.256 263.87 299.103 259.85C298.706 258.58 298.116 257.378 297.354 256.286L296.422 257.615Z" fill="#E6E6E6"/>
<path d="M333.021 256.407L332.393 253.931C331.28 253.459 330.14 253.05 328.981 252.707L328.902 253.858L328.58 252.589C327.142 252.179 326.164 251.998 326.164 251.998C326.164 251.998 327.485 257.023 330.257 260.864L333.486 261.431L330.977 261.793C331.326 262.213 331.701 262.61 332.1 262.982C336.131 266.725 340.622 268.442 342.129 266.817C343.637 265.193 341.591 260.843 337.559 257.1C336.248 255.94 334.767 254.988 333.168 254.277L333.021 256.407Z" fill="#E6E6E6"/>
<path d="M338.993 253.718L339.735 251.273C339.026 250.293 338.262 249.355 337.447 248.461L336.784 249.406L337.165 248.154C336.146 247.059 335.402 246.399 335.402 246.399C335.402 246.399 333.936 251.383 334.323 256.104L336.794 258.259L334.459 257.272C334.541 257.811 334.657 258.345 334.805 258.87C336.322 264.157 339.279 267.948 341.409 267.337C343.539 266.726 344.036 261.944 342.52 256.657C341.997 254.986 341.221 253.405 340.22 251.969L338.993 253.718Z" fill="#E6E6E6"/>
<path d="M254.963 246.538L257.816 243.231C257.385 241.209 256.841 239.213 256.185 237.252L254.495 238.27L255.956 236.576C255.121 234.16 254.416 232.613 254.416 232.613C254.416 232.613 248.675 239.389 246.012 247.036L248.383 252.115L245.417 248.956C245.172 249.856 244.983 250.77 244.852 251.693C243.564 261.008 245.562 268.98 249.314 269.499C253.067 270.018 257.153 262.887 258.442 253.573C258.781 250.6 258.663 247.592 258.091 244.655L254.963 246.538Z" fill="#E6E6E6"/>
<path d="M264.586 252.265L268.738 250.908C269.415 248.955 269.98 246.965 270.432 244.948L268.46 244.945L270.586 244.251C271.12 241.751 271.316 240.062 271.316 240.062C271.316 240.062 262.899 242.895 256.666 248.065L256.071 253.638L255.165 249.401C254.49 250.044 253.856 250.729 253.266 251.452C247.349 258.76 244.938 266.616 247.882 269C250.827 271.384 258.01 267.393 263.928 260.085C265.755 257.715 267.209 255.08 268.238 252.269L264.586 252.265Z" fill="#E6E6E6"/>
<path d="M303.057 259.68L304.326 258.209C304.135 257.31 303.893 256.422 303.601 255.55L302.85 256.002L303.499 255.249C303.128 254.175 302.814 253.487 302.814 253.487C301.235 255.413 299.974 257.578 299.077 259.901L300.131 262.16L298.812 260.755C298.703 261.155 298.619 261.562 298.561 261.973C297.988 266.115 298.876 269.661 300.545 269.891C302.214 270.122 304.032 266.951 304.605 262.808C304.756 261.486 304.703 260.148 304.449 258.842L303.057 259.68Z" fill="#E6E6E6"/>
<path d="M307.335 262.227L309.182 261.623C309.482 260.755 309.734 259.87 309.935 258.972L309.058 258.971L310.003 258.662C310.241 257.551 310.328 256.799 310.328 256.799C307.981 257.632 305.782 258.834 303.813 260.359L303.548 262.837L303.145 260.953C302.845 261.239 302.563 261.544 302.3 261.865C299.669 265.115 298.597 268.609 299.906 269.67C301.215 270.73 304.41 268.955 307.042 265.705C307.855 264.651 308.501 263.479 308.959 262.229L307.335 262.227Z" fill="#E6E6E6"/>
<path d="M0.236328 280C0.236328 280 310.388 248.03 393.864 280H0.236328Z" fill="#E6E6E6"/>
<path d="M196.627 82.0825L211.615 84.7186L216.611 59.6769L204.537 54.405L196.627 82.0825Z" fill="#2F2E41"/>
<path d="M214.648 86.0876L229.636 88.7233L234.632 63.6821L222.559 58.4102L214.648 86.0876Z" fill="#2F2E41"/>
<path d="M232.506 247.24V257.652H240.115L239.314 247.64L232.506 247.24Z" fill="#A0616A"/>
<path d="M192.857 247.24V257.652H185.248L186.049 247.64L192.857 247.24Z" fill="#A0616A"/>
<path d="M195.659 150.722L189.575 187.806C188.025 197.249 187.09 206.781 186.774 216.344L185.646 250.443L193.656 249.642L199.664 210.795C199.664 210.795 215.283 153.125 220.889 164.739C226.496 176.353 229.3 213.198 229.3 213.198L231.703 249.242H240.513L241.314 201.985C241.314 201.985 246.12 135.904 234.105 130.297L195.659 150.722Z" fill="#2F2E41"/>
<path d="M240.917 256.05C240.917 256.05 232.106 250.043 231.305 254.849L228.101 266.463C228.101 266.463 223.296 275.674 233.708 275.674C244.121 275.674 240.917 268.866 240.917 268.866V256.05Z" fill="#2F2E41"/>
<path d="M184.447 256.05C184.447 256.05 193.258 250.043 194.059 254.849L197.263 266.463C197.263 266.463 202.069 275.674 191.656 275.674C181.243 275.674 184.447 268.866 184.447 268.866V256.05Z" fill="#2F2E41"/>
<path d="M217.888 76.8325C224.302 76.8325 229.502 71.6327 229.502 65.2184C229.502 58.8041 224.302 53.6042 217.888 53.6042C211.473 53.6042 206.273 58.8041 206.273 65.2184C206.273 71.6327 211.473 76.8325 217.888 76.8325Z" fill="#A0616A"/>
<path d="M210.478 70.2244C210.478 70.2244 211.679 81.438 205.672 83.8409L215.684 95.8555L228.9 86.6443C228.9 86.6443 219.288 84.6419 220.89 79.0351C222.492 73.4283 222.492 72.6273 222.492 72.6273L210.478 70.2244Z" fill="#A0616A"/>
<path d="M207.875 82.4392C207.875 82.4392 216.285 88.847 217.887 88.4465C219.489 88.046 222.693 83.6406 222.693 83.6406C222.693 83.6406 234.507 83.8409 239.313 87.0448C244.119 90.2487 234.708 110.073 234.708 110.073C234.708 110.073 237.311 119.084 234.107 121.487C230.903 123.89 234.908 129.897 234.908 129.897C234.908 129.897 226.898 144.715 205.672 150.322C205.672 150.322 192.456 155.528 192.857 152.725C193.257 149.921 197.262 117.882 197.262 117.882V84.6419L207.875 82.4392Z" fill="#575A89"/>
<path d="M207.867 51.4124C207.867 51.4124 201.802 53.4341 201.494 61.4183C201.463 62.6953 201.604 63.9706 201.915 65.2096C202.256 66.657 202.476 69.7713 199.829 73.841C198.057 76.528 196.438 79.3129 194.98 82.1825L194.961 82.2204L201.622 83.0531L203.039 72.0117C203.725 66.6585 205.196 61.4356 207.405 56.5111L207.451 56.4083C207.451 56.4083 210.365 61.8205 216.194 61.8205L214.112 59.7388C214.112 59.7388 223.271 63.4858 226.602 63.4858C226.602 63.4858 229.1 65.1511 226.602 67.649C224.104 70.147 219.108 75.9755 222.022 80.5551C224.936 85.1347 222.438 86.3837 222.438 86.3837L227.018 83.8858L229.1 82.6368V84.3021L239.924 83.0531C239.924 83.0531 242.838 82.6368 236.593 75.5593C236.593 75.5593 234.944 72.8108 235.666 70.4403C236.259 68.6388 236.414 66.7221 236.12 64.8485C234.721 57.0437 229.232 41.5269 207.867 51.4124Z" fill="#2F2E41"/>
<path d="M162.316 151.723H271.315V212.138H257.47V228.752L242.555 212.138H162.316V151.723Z" fill="#3BC4FF"/>
<path d="M180.188 172.743H253.441V169.47H180.188V172.743Z" fill="white"/>
<path d="M180.188 183.567H253.441V180.295H180.188V183.567Z" fill="white"/>
<path d="M180.188 194.392H253.441V191.119H180.188V194.392Z" fill="white"/>
<path d="M188.854 116.681L190.055 125.491L198.866 149.921C198.866 149.921 200.868 168.744 205.674 166.341C210.48 163.938 204.873 147.118 204.873 147.118L197.664 124.29L198.065 116.28L188.854 116.681Z" fill="#A0616A"/>
<path d="M202.068 85.4428L198.456 84.2649L196.862 85.0423C196.862 85.0423 191.255 85.4428 190.454 89.4476C189.653 93.4525 186.85 118.283 186.85 118.283L201.668 119.084L202.068 85.4428Z" fill="#575A89"/>
<path d="M242.318 116.681L241.116 125.491L232.305 149.921C232.305 149.921 230.303 168.744 225.497 166.341C220.691 163.938 226.298 147.118 226.298 147.118L233.507 124.29L233.106 116.28L242.318 116.681Z" fill="#A0616A"/>
<path d="M229.1 85.4429L231.026 84.8148C232.107 84.4622 233.284 84.5438 234.306 85.0424C234.306 85.0424 239.913 85.4429 240.714 89.4478C241.515 93.4526 244.318 118.283 244.318 118.283L229.5 119.084L229.1 85.4429Z" fill="#575A89"/>
<path d="M15.9982 122.739C18.2052 122.739 19.9944 120.95 19.9944 118.743C19.9944 116.536 18.2052 114.747 15.9982 114.747C13.7911 114.747 12.002 116.536 12.002 118.743C12.002 120.95 13.7911 122.739 15.9982 122.739Z" fill="#E6E6E6"/>
</g>
<defs>
<clipPath id="clip0">
<rect width="393.866" height="280" fill="white"/>
</clipPath>
</defs>
</svg>
