<svg width="289" height="250" viewBox="0 0 289 250" fill="none" xmlns="http://www.w3.org/2000/svg">
<g clip-path="url(#clip0)">
<g opacity="0.5">
<path opacity="0.5" d="M43.8432 44.5312H42.6982V51.0195H43.8432V44.5312Z" fill="#47E6B1"/>
<path opacity="0.5" d="M46.5146 48.3481V47.2031H40.0264V48.3481H46.5146Z" fill="#47E6B1"/>
</g>
<g opacity="0.5">
<path opacity="0.5" d="M84.5439 185.739H83.3989V192.228H84.5439V185.739Z" fill="#47E6B1"/>
<path opacity="0.5" d="M87.2119 189.556V188.411H80.7236V189.556H87.2119Z" fill="#47E6B1"/>
</g>
<g opacity="0.5">
<path opacity="0.5" d="M27.5727 110.373H26.4277V116.861H27.5727V110.373Z" fill="#47E6B1"/>
<path opacity="0.5" d="M30.2441 114.19V113.045H23.7559V114.19H30.2441Z" fill="#47E6B1"/>
</g>
<g opacity="0.5">
<path opacity="0.5" d="M228.032 0H226.887V6.48828H228.032V0Z" fill="#47E6B1"/>
<path opacity="0.5" d="M230.704 3.81687V2.67188L224.215 2.67188V3.81687L230.704 3.81687Z" fill="#47E6B1"/>
</g>
<g opacity="0.5">
<path opacity="0.5" d="M34.8315 16.1367H33.6865V22.625H34.8315V16.1367Z" fill="#47E6B1"/>
<path opacity="0.5" d="M37.4995 19.9536V18.8086H31.0112V19.9536H37.4995Z" fill="#47E6B1"/>
</g>
<path opacity="0.5" d="M56.7684 162.586C56.453 162.448 56.1993 162.199 56.0554 161.887C55.9115 161.574 55.8874 161.22 55.9879 160.89C56.0041 160.84 56.0145 160.788 56.0188 160.736C56.0419 160.58 56.0107 160.42 55.9303 160.285C55.85 160.149 55.7254 160.045 55.5775 159.99C55.4296 159.935 55.2673 159.933 55.1179 159.984C54.9685 160.034 54.8411 160.135 54.7569 160.268C54.7253 160.311 54.6988 160.357 54.6778 160.406C54.5402 160.721 54.2914 160.975 53.9789 161.119C53.6663 161.263 53.3118 161.287 52.9827 161.186C52.9325 161.17 52.8806 161.16 52.828 161.155C52.6719 161.132 52.5127 161.163 52.3769 161.244C52.2412 161.324 52.1372 161.449 52.0824 161.596C52.0276 161.744 52.0253 161.907 52.0759 162.056C52.1265 162.205 52.2269 162.333 52.3603 162.417C52.403 162.449 52.4491 162.475 52.4979 162.496C52.8132 162.634 53.067 162.883 53.2109 163.195C53.3548 163.508 53.3788 163.862 53.2784 164.191C53.2622 164.242 53.2518 164.293 53.2475 164.346C53.2243 164.502 53.2556 164.661 53.3359 164.797C53.4163 164.933 53.5408 165.037 53.6888 165.092C53.8367 165.146 53.9989 165.149 54.1483 165.098C54.2977 165.047 54.4252 164.947 54.5093 164.814C54.5409 164.771 54.5675 164.725 54.5884 164.676C54.7261 164.361 54.9749 164.107 55.2874 163.963C55.5999 163.819 55.9545 163.795 56.2836 163.896C56.3338 163.912 56.3857 163.922 56.4383 163.927C56.5943 163.95 56.7536 163.918 56.8893 163.838C57.0251 163.758 57.1291 163.633 57.1839 163.485C57.2387 163.337 57.241 163.175 57.1904 163.026C57.1398 162.876 57.0393 162.749 56.9059 162.665C56.8633 162.633 56.8171 162.607 56.7684 162.586Z" fill="#4D8AF0"/>
<path opacity="0.5" d="M51.095 224.253C50.7797 224.116 50.5259 223.867 50.382 223.555C50.2381 223.242 50.2141 222.887 50.3145 222.558C50.3307 222.508 50.3411 222.456 50.3454 222.404C50.3685 222.248 50.3373 222.088 50.257 221.953C50.1766 221.817 50.052 221.713 49.9041 221.658C49.7562 221.603 49.594 221.601 49.4446 221.652C49.2952 221.702 49.1677 221.803 49.0835 221.936C49.052 221.979 49.0254 222.025 49.0045 222.074C48.8675 222.389 48.6195 222.643 48.3077 222.787C47.9959 222.932 47.6418 222.957 47.3128 222.858C47.2625 222.841 47.2106 222.831 47.158 222.827C47.002 222.803 46.8428 222.835 46.707 222.915C46.5713 222.995 46.4673 223.12 46.4125 223.268C46.3577 223.416 46.3554 223.578 46.406 223.727C46.4566 223.877 46.557 224.004 46.6904 224.088C46.7331 224.12 46.7792 224.147 46.8279 224.168C47.1433 224.305 47.397 224.554 47.5409 224.867C47.6849 225.179 47.7089 225.534 47.6085 225.863C47.5922 225.913 47.5819 225.965 47.5775 226.017C47.5544 226.173 47.5857 226.333 47.666 226.468C47.7464 226.604 47.8709 226.708 48.0188 226.763C48.1667 226.818 48.329 226.82 48.4784 226.769C48.6278 226.719 48.7553 226.618 48.8394 226.485C48.871 226.442 48.8975 226.396 48.9185 226.347C49.0562 226.032 49.3049 225.778 49.6175 225.634C49.93 225.491 50.2845 225.467 50.6136 225.567C50.6639 225.583 50.7158 225.594 50.7684 225.598C50.9244 225.621 51.0836 225.59 51.2194 225.509C51.3551 225.429 51.4591 225.305 51.5139 225.157C51.5687 225.009 51.571 224.846 51.5204 224.697C51.4698 224.548 51.3694 224.42 51.236 224.336C51.1924 224.303 51.1451 224.275 51.095 224.253Z" fill="#4D8AF0"/>
<path opacity="0.5" d="M259.806 87.7486C259.491 87.611 259.237 87.3622 259.093 87.0497C258.95 86.7371 258.926 86.3826 259.026 86.0535C259.042 86.0033 259.053 85.9514 259.057 85.8988C259.08 85.7427 259.049 85.5835 258.968 85.4477C258.888 85.312 258.764 85.208 258.616 85.1532C258.468 85.0984 258.305 85.0961 258.156 85.1467C258.007 85.1973 257.879 85.2977 257.795 85.4311C257.763 85.4738 257.737 85.5199 257.716 85.5687C257.579 85.8839 257.331 86.1379 257.019 86.2824C256.707 86.4269 256.353 86.4519 256.024 86.3526C255.974 86.3364 255.922 86.326 255.869 86.3217C255.713 86.2986 255.554 86.3298 255.418 86.4102C255.283 86.4905 255.179 86.6151 255.124 86.763C255.069 86.9109 255.067 87.0732 255.117 87.2226C255.168 87.372 255.268 87.4994 255.402 87.5836C255.444 87.6152 255.491 87.6417 255.539 87.6627C255.855 87.8003 256.108 88.0491 256.252 88.3616C256.396 88.6742 256.42 89.0287 256.32 89.3578C256.304 89.408 256.293 89.4599 256.289 89.5125C256.266 89.6686 256.297 89.8278 256.377 89.9635C256.458 90.0993 256.582 90.2033 256.73 90.2581C256.878 90.3129 257.04 90.3152 257.19 90.2646C257.339 90.214 257.467 90.1136 257.551 89.9802C257.582 89.9375 257.609 89.8914 257.63 89.8426C257.768 89.5273 258.016 89.2735 258.329 89.1296C258.641 88.9857 258.996 88.9617 259.325 89.0621C259.375 89.0783 259.427 89.0887 259.48 89.0931C259.636 89.1162 259.795 89.0849 259.931 89.0046C260.067 88.9242 260.171 88.7996 260.225 88.6517C260.28 88.5038 260.283 88.3416 260.232 88.1922C260.181 88.0428 260.081 87.9153 259.947 87.8312C259.904 87.7981 259.857 87.7704 259.806 87.7486Z" fill="#4D8AF0"/>
<path opacity="0.5" d="M250.361 152.851C250.046 152.714 249.792 152.465 249.648 152.152C249.504 151.84 249.48 151.485 249.581 151.156C249.597 151.106 249.607 151.054 249.612 151.001C249.635 150.845 249.603 150.686 249.523 150.55C249.443 150.415 249.318 150.311 249.17 150.256C249.022 150.201 248.86 150.199 248.711 150.249C248.561 150.3 248.434 150.4 248.35 150.534C248.318 150.576 248.292 150.622 248.271 150.671C248.133 150.987 247.884 151.24 247.572 151.384C247.259 151.528 246.905 151.552 246.575 151.452C246.525 151.436 246.473 151.425 246.421 151.421C246.265 151.398 246.105 151.429 245.97 151.509C245.834 151.59 245.73 151.714 245.675 151.862C245.62 152.01 245.618 152.172 245.669 152.322C245.719 152.471 245.82 152.599 245.953 152.683C245.996 152.714 246.042 152.741 246.091 152.762C246.406 152.899 246.66 153.148 246.804 153.461C246.948 153.773 246.972 154.128 246.871 154.457C246.855 154.507 246.845 154.559 246.84 154.612C246.817 154.768 246.848 154.927 246.929 155.063C247.009 155.198 247.134 155.302 247.282 155.357C247.429 155.412 247.592 155.414 247.741 155.364C247.891 155.313 248.018 155.213 248.102 155.079C248.134 155.037 248.16 154.99 248.181 154.942C248.319 154.626 248.568 154.373 248.88 154.229C249.193 154.085 249.547 154.061 249.876 154.161C249.927 154.177 249.979 154.188 250.031 154.192C250.187 154.215 250.346 154.184 250.482 154.104C250.618 154.023 250.722 153.899 250.777 153.751C250.831 153.603 250.834 153.441 250.783 153.291C250.733 153.142 250.632 153.014 250.499 152.93C250.456 152.899 250.41 152.872 250.361 152.851Z" fill="#4D8AF0"/>
<path opacity="0.5" d="M257.399 23.11C257.084 22.9723 256.83 22.7235 256.686 22.411C256.542 22.0985 256.518 21.7439 256.619 21.4148C256.635 21.3646 256.645 21.3127 256.65 21.2601C256.673 21.1041 256.642 20.9448 256.561 20.8091C256.481 20.6733 256.356 20.5693 256.208 20.5145C256.06 20.4597 255.898 20.4574 255.749 20.508C255.599 20.5586 255.472 20.6591 255.388 20.7925C255.356 20.8351 255.33 20.8813 255.309 20.93C255.171 21.2453 254.922 21.4991 254.61 21.643C254.297 21.7869 253.943 21.8109 253.614 21.7105C253.563 21.6943 253.511 21.6839 253.459 21.6796C253.303 21.6565 253.144 21.6877 253.008 21.7681C252.872 21.8484 252.768 21.973 252.713 22.1209C252.658 22.2688 252.656 22.4311 252.707 22.5805C252.757 22.7299 252.858 22.8573 252.991 22.9415C253.034 22.9731 253.08 22.9996 253.129 23.0206C253.444 23.1582 253.698 23.407 253.842 23.7195C253.986 24.0321 254.01 24.3866 253.909 24.7157C253.893 24.7659 253.883 24.8178 253.878 24.8704C253.855 25.0265 253.886 25.1857 253.967 25.3214C254.047 25.4572 254.172 25.5612 254.32 25.616C254.468 25.6708 254.63 25.6731 254.779 25.6225C254.929 25.5719 255.056 25.4715 255.14 25.338C255.172 25.2954 255.198 25.2493 255.219 25.2005C255.357 24.8852 255.606 24.6314 255.918 24.4875C256.231 24.3436 256.585 24.3196 256.914 24.42C256.965 24.4362 257.017 24.4466 257.069 24.4509C257.225 24.474 257.384 24.4428 257.52 24.3625C257.656 24.2821 257.76 24.1575 257.815 24.0096C257.87 23.8617 257.872 23.6995 257.821 23.5501C257.771 23.4007 257.67 23.2732 257.537 23.189C257.494 23.1575 257.448 23.1309 257.399 23.11Z" fill="#4D8AF0"/>
<path opacity="0.5" d="M279.481 192.296C279.165 192.159 278.912 191.91 278.768 191.598C278.624 191.285 278.6 190.93 278.7 190.601C278.716 190.551 278.727 190.499 278.731 190.447C278.754 190.291 278.723 190.131 278.643 189.996C278.562 189.86 278.438 189.756 278.29 189.701C278.142 189.646 277.98 189.644 277.83 189.695C277.681 189.745 277.553 189.846 277.469 189.979C277.438 190.022 277.411 190.068 277.39 190.117C277.253 190.432 277.004 190.686 276.691 190.83C276.379 190.973 276.024 190.997 275.695 190.897C275.645 190.881 275.593 190.87 275.54 190.866C275.384 190.843 275.225 190.874 275.089 190.955C274.954 191.035 274.85 191.159 274.795 191.307C274.74 191.455 274.738 191.618 274.788 191.767C274.839 191.916 274.939 192.044 275.073 192.128C275.115 192.16 275.162 192.186 275.21 192.207C275.526 192.345 275.779 192.593 275.923 192.906C276.067 193.219 276.091 193.573 275.991 193.902C275.975 193.952 275.964 194.004 275.96 194.057C275.937 194.213 275.968 194.372 276.048 194.508C276.129 194.644 276.253 194.748 276.401 194.802C276.549 194.857 276.711 194.86 276.861 194.809C277.01 194.758 277.138 194.658 277.222 194.525C277.253 194.482 277.28 194.436 277.301 194.387C277.438 194.072 277.687 193.818 278 193.674C278.312 193.53 278.667 193.506 278.996 193.607C279.046 193.623 279.098 193.633 279.151 193.637C279.307 193.661 279.466 193.629 279.602 193.549C279.737 193.469 279.841 193.344 279.896 193.196C279.951 193.048 279.953 192.886 279.903 192.737C279.852 192.587 279.752 192.46 279.618 192.376C279.576 192.344 279.53 192.317 279.481 192.296Z" fill="#4D8AF0"/>
<path opacity="0.5" d="M2.28998 90.9257C3.5547 90.9257 4.57996 89.9004 4.57996 88.6357C4.57996 87.371 3.5547 86.3457 2.28998 86.3457C1.02526 86.3457 0 87.371 0 88.6357C0 89.9004 1.02526 90.9257 2.28998 90.9257Z" fill="#F55F44"/>
<path opacity="0.5" d="M257.822 52.5214C259.087 52.5214 260.112 51.4961 260.112 50.2314C260.112 48.9667 259.087 47.9414 257.822 47.9414C256.557 47.9414 255.532 48.9667 255.532 50.2314C255.532 51.4961 256.557 52.5214 257.822 52.5214Z" fill="#F55F44"/>
<path opacity="0.5" d="M153.67 138.726C155.094 138.726 156.248 137.571 156.248 136.147C156.248 134.723 155.094 133.568 153.67 133.568C152.245 133.568 151.091 134.723 151.091 136.147C151.091 137.571 152.245 138.726 153.67 138.726Z" fill="#F55F44"/>
<path opacity="0.5" d="M153.67 138.726C155.094 138.726 156.248 137.571 156.248 136.147C156.248 134.723 155.094 133.568 153.67 133.568C152.245 133.568 151.091 134.723 151.091 136.147C151.091 137.571 152.245 138.726 153.67 138.726Z" fill="#F55F44"/>
<path opacity="0.5" d="M286.265 121.376C287.529 121.376 288.555 120.351 288.555 119.086C288.555 117.821 287.529 116.796 286.265 116.796C285 116.796 283.975 117.821 283.975 119.086C283.975 120.351 285 121.376 286.265 121.376Z" fill="#F55F44"/>
<path opacity="0.5" d="M101.148 18.8324C102.572 18.8324 103.726 17.6778 103.726 16.2536C103.726 14.8294 102.572 13.6748 101.148 13.6748C99.7234 13.6748 98.5688 14.8294 98.5688 16.2536C98.5688 17.6778 99.7234 18.8324 101.148 18.8324Z" fill="#47E6B1"/>
<path opacity="0.5" d="M248.078 215.956C249.343 215.956 250.368 214.931 250.368 213.666C250.368 212.401 249.343 211.376 248.078 211.376C246.813 211.376 245.788 212.401 245.788 213.666C245.788 214.931 246.813 215.956 248.078 215.956Z" fill="#F55F44"/>
<path d="M105.456 131.189C104.101 135.587 106.143 140.786 110.108 143.1C111.772 144.07 113.687 144.558 115.3 145.61C118.804 147.893 120.186 152.263 121.324 156.286C122.631 160.911 123.941 165.8 122.744 170.453C121.981 173.42 120.244 176.044 119.258 178.946C118.432 181.376 118.145 183.957 118.415 186.51C118.56 187.865 118.897 189.261 119.825 190.272C121.166 191.716 123.325 191.932 125.264 192.28C129.364 193.055 133.222 194.791 136.521 197.346C139.821 199.9 142.467 203.2 144.245 206.975" stroke="url(#paint0_linear)" stroke-width="2" stroke-miterlimit="10"/>
<path d="M105.872 131.189C104.517 135.587 106.559 140.786 110.524 143.1C112.188 144.07 114.103 144.558 115.716 145.61C119.22 147.893 120.602 152.263 121.74 156.286C123.047 160.911 124.357 165.8 123.16 170.453C122.397 173.42 120.66 176.044 119.674 178.946C118.848 181.376 118.561 183.957 118.831 186.51C118.976 187.865 119.313 189.261 120.241 190.272C121.582 191.716 123.741 191.932 125.68 192.28C129.78 193.055 133.638 194.791 136.937 197.346C140.237 199.9 142.883 203.2 144.661 206.975" stroke="#535461" stroke-width="2" stroke-miterlimit="10"/>
<path d="M157.152 98.3174C153.81 102.976 150.341 107.986 150.056 113.715C149.619 122.513 156.657 129.71 159.8 137.942C161.162 141.568 161.779 145.431 161.613 149.301C161.447 153.171 160.501 156.967 158.834 160.463C157.3 163.633 155.113 166.783 155.395 170.294C155.557 172.436 156.63 174.385 157.493 176.356C159.611 181.293 160.535 186.661 160.191 192.023C159.846 197.384 158.242 202.589 155.509 207.215" stroke="url(#paint1_linear)" stroke-width="2" stroke-miterlimit="10"/>
<path d="M157.565 98.3174C154.226 102.994 150.757 107.99 150.465 113.715C150.028 122.513 157.066 129.71 160.209 137.942C161.571 141.568 162.188 145.431 162.022 149.301C161.856 153.171 160.911 156.967 159.243 160.463C157.709 163.633 155.523 166.783 155.805 170.294C155.966 172.436 157.039 174.385 157.902 176.356C160.02 181.293 160.944 186.661 160.6 192.023C160.255 197.384 158.651 202.589 155.918 207.215" stroke="#535461" stroke-width="2" stroke-miterlimit="10"/>
<path d="M204.046 140.226L205.662 153.398C205.875 155.148 206.057 157.057 205.119 158.556C204.228 159.969 202.557 160.643 201.257 161.688C196.99 165.127 197.379 171.697 198.85 176.972C200.322 182.246 202.44 187.913 200.394 192.988C199.548 195.082 198.056 196.846 196.956 198.813C195.068 202.174 194.32 206.056 194.824 209.878" stroke="url(#paint2_linear)" stroke-width="2" stroke-miterlimit="10"/>
<path d="M204.448 140.226L206.064 153.398C206.277 155.148 206.459 157.057 205.52 158.556C204.63 159.969 202.959 160.643 201.659 161.688C197.392 165.127 197.781 171.697 199.252 176.972C200.724 182.246 202.842 187.913 200.796 192.988C199.95 195.082 198.458 196.846 197.358 198.813C195.47 202.174 194.722 206.056 195.226 209.878" stroke="#535461" stroke-width="2" stroke-miterlimit="10"/>
<g opacity="0.7">
<path opacity="0.7" d="M245.95 86.0836C245.947 79.9211 244.486 73.8467 241.686 68.3568C238.887 62.8668 234.828 58.1172 229.842 54.496C224.855 50.8748 219.083 48.4848 212.996 47.5213C206.91 46.5578 200.681 47.0481 194.82 48.9522C195.143 46.7581 195.31 44.544 195.319 42.3264C195.334 32.2054 191.418 22.4742 184.397 15.185C177.375 7.89583 167.797 3.61866 157.683 3.25562C147.569 2.89257 137.709 6.47204 130.182 13.239C122.656 20.006 118.053 29.4315 117.343 39.5275C111.48 37.6193 105.249 37.126 99.1596 38.0878C93.0699 39.0496 87.2943 41.4392 82.3053 45.0612C77.3163 48.6833 73.2555 53.4349 70.455 58.9273C67.6546 64.4198 66.1941 70.4971 66.1929 76.6623C66.1929 96.2613 80.6342 124.112 99.4251 129.047L102.351 130.718L100.763 136.161H110.17L108.128 130.711L111.04 129.047C125.571 125.233 137.485 107.728 142.151 90.9386C144.705 92.6389 147.517 93.916 150.479 94.7209L153.405 96.3919L151.84 101.821H161.248L159.205 96.3713L162.118 94.7071C164.276 94.1264 166.355 93.2822 168.307 92.1936C170.82 111.029 184.192 134.025 201.113 138.464L204.039 140.135L202.45 145.578H211.858L209.808 140.129L212.721 138.464C231.525 133.53 245.95 105.669 245.95 86.0836Z" fill="url(#paint3_linear)"/>
</g>
<path d="M111.666 134.147H102.561L104.156 128.687H109.617L111.666 134.147Z" fill="#F55F44"/>
<path d="M144.661 76.573C144.661 97.4373 127.748 128.001 106.887 128.001C86.0259 128.001 69.1123 97.4338 69.1123 76.573C69.1123 66.5541 73.0923 56.9456 80.1767 49.8612C87.2611 42.7768 96.8696 38.7969 106.888 38.7969C116.907 38.7969 126.516 42.7768 133.6 49.8612C140.685 56.9456 144.665 66.5541 144.665 76.573H144.661Z" fill="#F55F44"/>
<path d="M109.616 128.913H104.156L100.969 127.094H112.804L109.616 128.913Z" fill="#535461"/>
<path opacity="0.1" d="M93.2327 47.2158C93.2327 47.2158 77.3026 55.8634 75.0264 73.1586L93.2327 47.2158Z" fill="white"/>
<path d="M161.065 100.938H151.96L153.556 95.4775H159.016L161.065 100.938Z" fill="#4D8AF0"/>
<path d="M194.06 43.365C194.06 64.2293 177.147 94.7933 156.286 94.7933C135.425 94.7933 118.512 64.2258 118.512 43.365C118.512 33.3461 122.492 23.7376 129.576 16.6532C136.66 9.56884 146.269 5.58887 156.288 5.58887C166.307 5.58887 175.915 9.56884 183 16.6532C190.084 23.7376 194.064 33.3461 194.064 43.365H194.06Z" fill="#004492"/>
<path d="M159.016 95.7042H153.556L150.369 93.8818H162.204L159.016 95.7042Z" fill="#535461"/>
<path opacity="0.1" d="M142.632 14.0078C142.632 14.0078 126.702 22.6554 124.426 39.9506L142.632 14.0078Z" fill="white"/>
<path d="M210.049 143.282H200.944L202.54 137.818H208L210.049 143.282Z" fill="#3AD29F"/>
<path d="M243.044 85.7058C243.044 106.57 226.13 137.134 205.27 137.134C184.409 137.134 167.492 106.57 167.492 85.7058C167.492 75.6869 171.472 66.0784 178.556 58.9941C185.64 51.9097 195.249 47.9297 205.268 47.9297C215.287 47.9297 224.895 51.9097 231.98 58.9941C239.064 66.0784 243.044 75.6869 243.044 85.7058Z" fill="#3AD29F"/>
<path d="M208 138.045H202.539L199.352 136.227H211.187L208 138.045Z" fill="#535461"/>
<path opacity="0.1" d="M191.616 56.3486C191.616 56.3486 175.685 64.9962 173.409 82.2915L191.616 56.3486Z" fill="white"/>
<g opacity="0.5">
<path opacity="0.5" d="M177.563 149.719C175.373 147.521 172.178 146.648 168.568 147.257C165.192 147.827 161.812 149.664 159.054 152.414C158.255 153.218 157.584 154.138 157.063 155.144C156.556 154.104 155.89 153.15 155.09 152.315C152.38 149.512 149.031 147.625 145.651 147.006C142.055 146.318 138.847 147.154 136.615 149.313C134.383 151.472 133.469 154.653 134.026 158.27C134.549 161.653 136.33 165.061 139.043 167.856C144.743 173.739 156.121 171.443 156.602 171.339L156.743 171.308L157.18 171.408C157.662 171.518 168.998 174.011 174.799 168.228C177.549 165.477 179.396 162.104 179.98 158.727C180.616 155.113 179.753 151.919 177.563 149.719ZM154.691 167.942C151.94 168.314 145.087 168.816 141.687 165.305C139.5 163.046 138.069 160.35 137.66 157.706C137.289 155.299 137.825 153.236 139.18 151.936C139.709 151.429 140.341 151.042 141.033 150.802C142.313 150.388 143.68 150.319 144.994 150.602C147.621 151.094 150.276 152.607 152.463 154.866C155.863 158.352 155.148 165.202 154.691 167.939V167.942ZM176.391 158.105C175.937 160.739 174.462 163.414 172.234 165.632C168.771 169.07 161.918 168.461 159.185 168.038C158.776 165.288 158.177 158.449 161.64 154.997C163.868 152.779 166.546 151.311 169.18 150.87C170.5 150.61 171.865 150.703 173.138 151.139C173.827 151.391 174.454 151.79 174.974 152.308C176.301 153.638 176.803 155.695 176.391 158.101V158.105Z" fill="url(#paint4_linear)"/>
</g>
<path d="M157.72 170.59L156.637 170.817C156.176 170.913 145.29 173.11 139.833 167.482C137.241 164.807 135.535 161.547 135.02 158.308C134.483 154.845 135.364 151.802 137.495 149.736C139.627 147.67 142.698 146.886 146.139 147.529C149.361 148.13 152.566 149.935 155.158 152.614C160.612 158.243 158.074 169.056 157.964 169.514L157.72 170.59ZM141.721 151.166C141.058 151.396 140.453 151.767 139.947 152.253C138.654 153.508 138.138 155.468 138.492 157.775C138.884 160.302 140.253 162.884 142.347 165.047C145.603 168.407 152.16 167.925 154.791 167.571C155.227 164.954 155.915 158.415 152.659 155.055C150.565 152.896 148.027 151.445 145.51 150.977C144.253 150.706 142.946 150.771 141.721 151.166Z" fill="#004492"/>
<path d="M156.111 170.637L155.87 169.558C155.767 169.097 153.415 158.242 158.965 152.71C161.605 150.079 164.838 148.329 168.07 147.782C171.508 147.198 174.579 148.033 176.666 150.138C178.753 152.242 179.588 155.295 178.993 158.734C178.436 161.962 176.676 165.191 174.035 167.821C168.486 173.354 157.637 170.968 157.187 170.864L156.111 170.637ZM172.443 151.475C171.227 151.058 169.923 150.97 168.661 151.217C166.137 151.644 163.576 153.05 161.44 155.172C158.126 158.476 158.69 165.023 159.092 167.65C161.715 168.048 168.266 168.643 171.577 165.342C173.709 163.217 175.118 160.659 175.555 158.122C175.95 155.821 175.469 153.851 174.197 152.576C173.698 152.087 173.1 151.712 172.443 151.475Z" fill="#004492"/>
<g opacity="0.5">
<path opacity="0.5" d="M209.203 167.746H103.641V188.868H109.125V250H203.719V188.868H209.203V167.746Z" fill="url(#paint5_linear)"/>
</g>
<path d="M202.522 174.132H110.321V248.962H202.522V174.132Z" fill="#535461"/>
<path d="M165.106 187.493H147.735V248.958H165.106V187.493Z" fill="#004492"/>
<path opacity="0.1" d="M202.522 170.122H110.321V188.83H202.522V170.122Z" fill="black"/>
<path d="M207.869 168.785H104.978V187.494H207.869V168.785Z" fill="#535461"/>
<path d="M165.106 168.785H147.735V187.494H165.106V168.785Z" fill="#004492"/>
</g>
<defs>
<linearGradient id="paint0_linear" x1="104.692" y1="169.091" x2="144.554" y2="169.091" gradientUnits="userSpaceOnUse">
<stop stop-color="#808080" stop-opacity="0.25"/>
<stop offset="0.54" stop-color="#808080" stop-opacity="0.12"/>
<stop offset="1" stop-color="#808080" stop-opacity="0.1"/>
</linearGradient>
<linearGradient id="paint1_linear" x1="7294.5" y1="57892.6" x2="7709.3" y2="57892.6" gradientUnits="userSpaceOnUse">
<stop stop-color="#808080" stop-opacity="0.25"/>
<stop offset="0.54" stop-color="#808080" stop-opacity="0.12"/>
<stop offset="1" stop-color="#808080" stop-opacity="0.1"/>
</linearGradient>
<linearGradient id="paint2_linear" x1="8516.04" y1="41622.1" x2="8901.59" y2="41622.1" gradientUnits="userSpaceOnUse">
<stop stop-color="#808080" stop-opacity="0.25"/>
<stop offset="0.54" stop-color="#808080" stop-opacity="0.12"/>
<stop offset="1" stop-color="#808080" stop-opacity="0.1"/>
</linearGradient>
<linearGradient id="paint3_linear" x1="114089" y1="72579.3" x2="114089" y2="13671.5" gradientUnits="userSpaceOnUse">
<stop stop-color="#808080" stop-opacity="0.25"/>
<stop offset="0.54" stop-color="#808080" stop-opacity="0.12"/>
<stop offset="1" stop-color="#808080" stop-opacity="0.1"/>
</linearGradient>
<linearGradient id="paint4_linear" x1="29643.3" y1="14971.6" x2="29643.3" y2="13115.4" gradientUnits="userSpaceOnUse">
<stop stop-color="#808080" stop-opacity="0.25"/>
<stop offset="0.54" stop-color="#808080" stop-opacity="0.12"/>
<stop offset="1" stop-color="#808080" stop-opacity="0.1"/>
</linearGradient>
<linearGradient id="paint5_linear" x1="48126.2" y1="59972.7" x2="48126.2" y2="40296" gradientUnits="userSpaceOnUse">
<stop stop-color="#808080" stop-opacity="0.25"/>
<stop offset="0.54" stop-color="#808080" stop-opacity="0.12"/>
<stop offset="1" stop-color="#808080" stop-opacity="0.1"/>
</linearGradient>
<clipPath id="clip0">
<rect width="288.551" height="250" fill="white"/>
</clipPath>
</defs>
</svg>
