<?xml version="1.0" encoding="UTF-8" standalone="no"?>
<svg
   xmlns:dc="http://purl.org/dc/elements/1.1/"
   xmlns:cc="http://creativecommons.org/ns#"
   xmlns:rdf="http://www.w3.org/1999/02/22-rdf-syntax-ns#"
   xmlns:svg="http://www.w3.org/2000/svg"
   xmlns="http://www.w3.org/2000/svg"
   xmlns:sodipodi="http://sodipodi.sourceforge.net/DTD/sodipodi-0.dtd"
   xmlns:inkscape="http://www.inkscape.org/namespaces/inkscape"
   inkscape:version="1.0 (4035a4f, 2020-05-01)"
   sodipodi:docname="undraw_winners.svg"
   id="svg980"
   version="1.1"
   fill="none"
   viewBox="0 0 322 254"
   height="254"
   width="322">
  <metadata
     id="metadata984">
    <rdf:RDF>
      <cc:Work
         rdf:about="">
        <dc:format>image/svg+xml</dc:format>
        <dc:type
           rdf:resource="http://purl.org/dc/dcmitype/StillImage" />
        <dc:title></dc:title>
      </cc:Work>
    </rdf:RDF>
  </metadata>
  <sodipodi:namedview
     inkscape:current-layer="svg980"
     inkscape:window-maximized="0"
     inkscape:window-y="0"
     inkscape:window-x="0"
     inkscape:cy="175"
     inkscape:cx="307.5"
     inkscape:zoom="1.1577236"
     showgrid="false"
     id="namedview982"
     inkscape:window-height="1120"
     inkscape:window-width="1792"
     inkscape:pageshadow="2"
     inkscape:pageopacity="0"
     guidetolerance="10"
     gridtolerance="10"
     objecttolerance="10"
     borderopacity="1"
     bordercolor="#666666"
     pagecolor="#ffffff" />
  <g
     transform="translate(-212.74,-95.332251)"
     id="g1050">
    <path
       d="m 212.868,133.597 0.365,4.897 c 0.054,0.665 1.325,16.499 10.701,35.004 8.046,15.872 23.703,36.544 53.263,48.162 2.306,0.912 4.7,1.763 7.182,2.553 l 2.767,-8.689 c -6.948,-2.187 -13.641,-5.115 -19.964,-8.733 -15.067,-8.7 -26.781,-21.117 -34.95,-37.096 -4.335,-8.507 -7.423,-17.594 -9.172,-26.98 h 33.631 v -9.118 z"
       fill="#ffa546"
       id="path839" />
    <path
       opacity="0.1"
       d="M 280.818,221.665 C 251.263,210.047 235.601,189.38 227.56,173.509 218.184,155.004 216.908,139.18 216.859,138.505 l -0.364,-4.898 h -3.755 l 0.365,4.898 c 0.048,0.665 1.325,16.499 10.701,35.004 8.045,15.871 23.702,36.538 53.257,48.156 2.306,0.912 4.702,1.765 7.187,2.559 l 0.365,-1.143 c -1.294,-0.461 -2.56,-0.933 -3.797,-1.416 z"
       fill="#ffffff"
       id="path841" />
    <path
       d="m 339.991,215.524 2.768,8.689 c 2.485,-0.794 4.881,-1.647 7.188,-2.559 29.554,-11.618 45.217,-32.284 53.257,-48.156 9.376,-18.505 10.653,-34.328 10.701,-35.004 l 0.365,-4.897 h -43.801 v 9.118 h 33.636 c -1.758,9.388 -4.856,18.474 -9.199,26.98 -8.169,15.979 -19.878,28.396 -34.945,37.091 -6.323,3.622 -13.018,6.551 -19.97,8.738 z"
       fill="#ffa546"
       id="path843" />
    <path
       opacity="0.1"
       d="m 346.331,221.665 c 29.554,-11.618 45.217,-32.285 53.257,-48.156 9.376,-18.505 10.653,-34.329 10.701,-35.004 l 0.365,-4.898 h 3.754 l -0.365,4.898 c -0.048,0.665 -1.324,16.499 -10.7,35.004 -8.046,15.871 -23.703,36.538 -53.258,48.156 -2.306,0.912 -4.702,1.765 -7.187,2.559 l -0.365,-1.143 c 1.291,-0.461 2.557,-0.933 3.798,-1.416 z"
       fill="#ffffff"
       id="path845" />
    <path
       d="m 262.973,299.521 v 49.17 h 101.199 v -49.17 l -3.218,-4.291 c -32.795,-11.639 -39.441,-41.993 -40.765,-54.003 -0.198,-1.659 -0.31,-3.328 -0.338,-4.999 h -12.514 c -0.028,1.671 -0.141,3.34 -0.338,4.999 -1.346,12.01 -7.992,42.374 -40.765,54.003 z"
       fill="#ffa546"
       id="path847" />
    <path
       opacity="0.1"
       d="m 262.973,299.521 h 101.199 v 6.168 H 262.973 Z"
       fill="#000000"
       id="path849" />
    <path
       opacity="0.1"
       d="m 355.59,295.23 c -32.795,-11.639 -39.44,-41.993 -40.765,-54.003 -0.197,-1.659 -0.31,-3.328 -0.338,-4.999 h 5.364 c 0.028,1.671 0.14,3.34 0.338,4.999 1.346,12.01 7.992,42.374 40.765,54.003 l 3.218,4.291 v 49.17 h -5.364 v -49.17 z"
       fill="#ffffff"
       id="path851" />
    <path
       opacity="0.1"
       d="m 379.545,133.597 h -9.076 v 9.118 h 8.271 c 0.326,-3.004 0.594,-6.043 0.805,-9.118 z"
       fill="#000000"
       id="path853" />
    <path
       opacity="0.1"
       d="m 339.991,215.524 2.768,8.689 c 2.485,-0.794 4.881,-1.647 7.188,-2.558 3.794,-4.634 7.146,-9.611 10.014,-14.869 -6.323,3.622 -13.018,6.551 -19.97,8.738 z"
       fill="#000000"
       id="path855" />
    <path
       opacity="0.1"
       d="m 287.152,215.524 c -6.948,-2.187 -13.641,-5.115 -19.964,-8.733 2.869,5.258 6.222,10.238 10.014,14.874 2.307,0.912 4.701,1.763 7.183,2.553 z"
       fill="#000000"
       id="path857" />
    <path
       opacity="0.1"
       d="m 247.606,133.597 c 0.211,3.075 0.479,6.114 0.804,9.118 h 8.266 v -9.118 z"
       fill="#000000"
       id="path859" />
    <path
       opacity="0.1"
       d="m 306.978,241.227 c 4.356,0.844 8.834,0.844 13.19,0 -0.197,-1.659 -0.31,-3.328 -0.338,-4.999 h -12.514 c -0.028,1.671 -0.14,3.34 -0.338,4.999 z"
       fill="#000000"
       id="path861" />
    <path
       d="m 378.471,118.492 c -0.231,67.617 -29.196,122.295 -64.903,122.295 -35.706,0 -64.666,-54.678 -64.902,-122.295 z"
       fill="#ffa546"
       id="path863" />
    <path
       opacity="0.1"
       d="m 366.938,118.492 h 11.533 c -0.231,67.617 -29.196,122.295 -64.903,122.295 -1.932,-0.003 -3.86,-0.166 -5.766,-0.488 33.009,-5.514 58.917,-57.87 59.136,-121.807 z"
       fill="#ffffff"
       id="path865" />
    <path
       d="m 279.154,318.343 h 68.834 v 17.7 h -68.834 z"
       fill="#3f3d56"
       id="path867" />
    <path
       opacity="0.1"
       d="m 344.77,320.756 h -65.616 v -2.413 h 68.834 v 17.7 h -3.218 z"
       fill="#ffffff"
       id="path869" />
    <path
       style="fill:url(#paint0_linear)"
       d="m 415.182,183.775 c 1.239,-0.413 8.534,-6.184 9.086,-8.796 0.553,-2.613 -3.856,-26.948 -3.856,-26.948 0,0 0.407,0 1.072,-0.081 v -0.391 l -0.906,-31.969 c 0,0 -3.717,-21.4549 3.304,-20.2052 7.021,1.2498 2.617,20.2052 2.617,20.2052 0,0 0.8,9.623 1.363,12.509 0.536,2.784 2.993,14.123 1.319,17.647 -0.061,0.125 -0.129,0.247 -0.203,0.364 0,0 -0.279,12.096 2.751,13.748 2.891,1.572 4.093,9.483 4.195,10.191 l 0.155,-0.064 c 0.863,-0.54 1.621,-1.233 2.237,-2.044 0.064,-0.08 0.113,-0.166 0.172,-0.252 -1.974,-2.22 -3.037,-5.103 -2.979,-8.073 0.059,-2.97 1.235,-5.808 3.295,-7.949 0.958,-0.994 2.081,-1.815 3.32,-2.424 0.036,-1.025 0.279,-2.032 0.714,-2.961 1.394,-2.982 9.118,-6.882 14.605,-6.973 2.532,-0.075 4.608,0.644 5.364,2.623 0.386,1.003 0.268,2.146 0.429,3.186 0.322,2.146 1.701,3.825 3.471,5.16 0.714,-0.798 1.487,-1.542 2.311,-2.226 1.792,-1.373 5.364,-5.9 5.364,-5.9 0,0 11.152,-11.548 11.978,-14.713 0.826,-3.165 11.966,-22.169 14.444,-18.859 2.479,3.309 -8.533,17.733 -8.533,17.733 0,0 -2.092,5.24 -3.701,7.01 -1.61,1.77 -13.946,19.685 -13.946,19.685 l -0.59,1.223 c 2.606,1.373 4.988,3.122 5.83,5.847 1.234,4.012 -1.464,8.046 -3.331,11.8 -3.636,7.327 -4.157,16.671 0.537,23.365 4.205,5.911 11.5,8.722 18.328,11.178 -3.298,2.59 -7.395,3.95 -11.586,3.846 1.577,4.57 7.166,6.083 11.929,6.93 -2.5,2.403 -6.077,3.277 -9.51,3.809 -1.681,0.286 -3.385,0.42 -5.09,0.402 h -0.419 l -0.418,-0.032 c -0.581,-0.039 -1.16,-0.112 -1.733,-0.22 -2.478,-0.505 -4.886,-1.856 -6.152,-4.045 -1.073,-1.872 -1.448,-4.425 -3.395,-5.363 -0.507,-0.229 -1.053,-0.359 -1.609,-0.381 h 0.059 c -0.365,0 -0.741,0 -1.105,0 l -8.116,0.08 c -0.338,0 -0.686,0 -1.035,0 -2.29,-0.053 -4.736,-0.45 -5.9,-2.344 -0.479,-0.919 -0.731,-1.94 -0.735,-2.977 -0.172,-2.569 0,-5.213 -0.07,-7.804 -0.692,4.715 -1.416,12.063 0.306,14.777 1.399,2.057 3.094,3.895 5.031,5.455 0.488,0.409 0.933,0.866 1.331,1.363 0.262,0.187 0.418,0.289 0.418,0.289 l 0.166,0.499 c 0.612,0.927 1.055,1.955 1.309,3.036 0.094,0.278 0.128,0.572 0.102,0.864 -0.188,0.38 1.341,1.952 0.896,2.612 3.819,4.479 4.543,11.264 4.543,11.264 l 6.973,10.588 c 3.583,9.414 8.947,10.379 8.947,10.379 0,0 12.599,-8.453 12.943,-8.866 0.343,-0.413 5.16,-2.478 5.16,-2.478 0.567,-0.996 1.434,-1.788 2.478,-2.264 1.652,-0.687 1.791,-3.218 1.791,-3.218 0.204,-5.981 3.717,-6.437 3.717,-6.437 2.832,-0.241 4.994,0.263 6.657,1.186 l 0.504,0.037 c 2.435,0.199 5.364,0.418 8.582,0.633 8.952,0.59 11.082,6.388 11.082,6.388 0,0 1.099,1.239 -0.344,2.58 -1.442,1.341 -10.679,0 -11.071,-0.032 0.704,0.076 1.416,0.027 2.103,-0.145 -1.453,-0.053 -3.454,-0.107 -5.16,-0.107 h -0.413 c 0.107,0.904 0.159,1.814 0.156,2.725 0,1.716 -4.747,2.816 -4.747,2.816 l -14.456,12.873 c 0,0 -9.086,4.06 -14.868,9.902 -5.783,5.841 -10.894,0.799 -10.894,0.799 -6.12,-1.513 -23.73,-22.802 -23.746,-22.823 0,0.622 -0.37,21.326 -1.073,25.483 -0.028,0.211 -0.08,0.418 -0.155,0.617 -0.826,1.786 0.279,6.667 0.756,8.727 0.305,1.724 0.421,3.475 0.349,5.224 0,0 6.603,25.21 6.055,27.426 -0.547,2.215 3.578,12.508 3.578,12.508 v 8.582 l -0.719,-0.037 c 0.094,0.138 0.18,0.281 0.258,0.429 l 0.048,0.091 c 0,0 -4.404,0.96 -7.364,0.686 -2.961,-0.273 -8.046,2.28 -8.046,2.28 0,0 -1.722,0.815 -7.021,1.159 -5.3,0.343 -5.3,-2.339 -5.3,-2.339 0.606,-3.653 8.979,-4.876 9.237,-4.913 0.676,-0.424 1.308,-0.885 1.829,-1.282 l 0.107,-0.086 c -0.035,-0.08 -0.066,-0.163 -0.091,-0.247 -0.896,-3.647 4.06,-5.229 4.06,-5.229 v -0.891 c -3.218,-1.652 -3.856,-12.991 -3.856,-12.991 0,0 -4.828,-14.021 -5.504,-16.36 -0.675,-2.338 0,-5.841 0,-5.841 l -0.482,-3.025 c 0,0 -1.036,-2.06 -1.036,-2.473 -0.134,-1.047 -0.536,-2.041 -1.169,-2.885 -0.756,-0.896 0.826,-3.026 0.826,-3.026 l -1.378,-3.572 v -3.921 l -3.219,-14.225 c 0,0 -3.373,-16.569 -2.204,-21.991 1.169,-5.423 -1.379,-8.18 -1.379,-8.18 0.23,0.12 0.466,0.228 0.708,0.322 -0.322,-0.745 -0.599,-1.508 -0.831,-2.285 l -7.241,0.895 v 0.108 h -2.612 c 0,0 0.826,-10.192 0.826,-14.3 0,-4.109 -2.784,-18.854 -2.784,-18.854 0,0 -1.239,-14.413 0,-14.826 z m 32.145,-11.897 c 0,0.403 0.038,0.821 0.065,1.25 l 0.144,0.22 0.269,-0.225 0.327,0.509 0.096,0.049 c 0.708,-0.365 1.073,-2.452 1.583,-2.001 l 0.069,0.059 c 0.113,-0.129 0.226,-0.166 0.344,-0.059 l 0.107,0.091 c 0,-0.156 0,-0.316 0,-0.477 -0.981,0.252 -1.991,0.38 -3.004,0.38 -0.005,0.07 0,0.14 0,0.204 z m -24.083,47.459 h -0.156 l 0.258,0.676 c -0.033,-0.225 -0.065,-0.445 -0.102,-0.676 z m 26.438,121.636 0.987,-0.247 -0.537,-0.091 -0.498,0.327 -0.059,0.043 z m -10.084,-1.443 c 0.327,-0.172 0.66,-0.37 0.982,-0.574 -0.108,0.059 -0.532,0.279 -0.982,0.574 z"
       fill="url(#paint0_linear)"
       id="path871" />
    <path
       d="m 419.681,209.205 6.496,16.928 H 424.6 l 6.109,4.871 -11.028,1.373 z"
       fill="#f86d70"
       id="path873" />
    <path
       opacity="0.1"
       d="m 419.681,209.205 6.496,16.928 1.636,-0.44 2.896,5.311 -11.028,1.373 z"
       fill="#000000"
       id="path875" />
    <path
       d="m 429.867,220.034 h -10.186 l -3.738,-30.761 h 13.924 z"
       fill="#f86d70"
       id="path877" />
    <path
       opacity="0.1"
       d="m 429.867,220.034 h -10.186 l -3.738,-30.761 h 13.924 z"
       fill="#000000"
       id="path879" />
    <path
       d="m 449.762,196.557 -2.199,-0.37 -5.053,-0.858 c 0,0 -15.174,-3.422 -18.307,-3.701 -1.897,-0.251 -3.748,-0.778 -5.492,-1.566 -0.821,-0.354 -1.341,-0.623 -1.341,-0.623 l 5.465,-9.982 8.481,-6.286 c 0,0 5.363,-1.142 7.632,-4.264 0.507,-0.672 0.836,-1.46 0.959,-2.292 0.123,-0.832 0.035,-1.682 -0.256,-2.471 -1.384,-4.291 8.266,4.103 8.266,4.103 0,0 -0.092,2.011 0,4.575 0,0.505 0.048,1.03 0.085,1.567 0,0.354 0.049,0.708 0.086,1.072 0.236,2.548 0.719,5.171 1.674,6.737 2.333,3.83 0,14.359 0,14.359 z"
       fill="#fbbebe"
       id="path881" />
    <path
       opacity="0.1"
       d="m 447.916,173.037 h -0.215 c -0.386,0 -0.697,-0.821 -1.072,-0.858 -3.02,-0.29 -5.777,-0.923 -7.692,-3.063 0.505,-0.671 0.834,-1.459 0.957,-2.29 0.122,-0.831 0.035,-1.679 -0.254,-2.468 -1.384,-4.291 8.265,4.098 8.265,4.098 0,0 -0.102,2.017 0.011,4.581 z"
       fill="#000000"
       id="path883" />
    <path
       d="m 459.664,160.872 c 0.001,1.544 -0.303,3.073 -0.893,4.5 -0.591,1.427 -1.457,2.723 -2.549,3.815 -1.092,1.092 -2.388,1.958 -3.815,2.549 -1.427,0.59 -2.956,0.894 -4.5,0.893 -0.387,0 -0.767,0 -1.148,-0.053 -2.266,-0.223 -4.418,-1.098 -6.196,-2.52 -1.778,-1.421 -3.104,-3.329 -3.819,-5.49 -0.715,-2.161 -0.787,-4.483 -0.208,-6.685 0.58,-2.201 1.786,-4.187 3.472,-5.716 1.686,-1.529 3.78,-2.536 6.028,-2.898 2.247,-0.363 4.551,-0.065 6.632,0.857 2.082,0.922 3.851,2.428 5.092,4.336 1.242,1.908 1.904,4.135 1.904,6.412 z"
       fill="#fbbebe"
       id="path885" />
    <path
       d="m 463.274,143.026 c 0.386,0.998 0.268,2.114 0.424,3.17 0.574,3.814 4.452,6.099 7.959,7.697 3.508,1.599 7.467,3.492 8.583,7.177 1.223,3.985 -1.449,7.981 -3.305,11.72 -3.615,7.284 -4.13,16.574 0.537,23.236 4.146,5.9 11.371,8.7 18.172,11.157 -3.273,2.575 -7.341,3.929 -11.505,3.83 1.561,4.543 7.113,6.05 11.843,6.887 -2.483,2.392 -6.039,3.261 -9.445,3.787 -2.484,0.386 -5.032,0.638 -7.51,0.139 -2.478,-0.499 -4.827,-1.845 -6.104,-4.023 -1.072,-1.861 -1.437,-4.398 -3.373,-5.337 -0.875,-0.344 -1.816,-0.481 -2.752,-0.402 l -8.046,0.086 c -2.505,0 -5.471,-0.193 -6.764,-2.334 -0.476,-0.914 -0.727,-1.929 -0.729,-2.96 -0.349,-5.278 0.665,-10.857 -1.507,-15.673 -0.655,-1.454 3.545,-3.755 3.105,-5.295 -1.512,-5.294 -1.893,-9.461 -1.877,-14.97 0,-4.264 -2.773,-7.938 -5.063,-11.537 -2.291,-3.6 -4.206,-8.143 -2.398,-12.005 2.038,-4.307 17.346,-10.566 19.755,-4.35 z"
       fill="#3f3d56"
       id="path887" />
    <path
       d="m 452.562,339.428 -2.048,1.357 -0.317,0.209 -0.059,0.038 -2.43,1.609 -5.675,0.955 -4.988,-0.344 c 0,0 -1.438,-3.003 0.821,-2.934 0.723,-0.037 1.428,-0.24 2.059,-0.595 l 0.311,-0.156 c 0.328,-0.171 0.655,-0.364 0.977,-0.568 0.67,-0.424 1.303,-0.885 1.813,-1.277 0.751,-0.579 1.249,-1.019 1.249,-1.019 z"
       fill="#fbbebe"
       id="path889" />
    <path
       opacity="0.1"
       d="m 450.486,340.785 -0.316,0.209 -0.059,0.038 -2.43,1.609 -5.675,0.955 -4.988,-0.344 c 0,0 -1.438,-3.003 0.82,-2.934 0.724,-0.037 1.429,-0.241 2.06,-0.595 -0.397,0.311 -0.729,0.649 -0.762,0.933 -0.091,0.767 3.691,2.146 3.691,2.146 l 5.331,-1.411 c 0,0 0.907,-0.257 2.146,-0.579 l 0.118,-0.032 z"
       fill="#000000"
       id="path891" />
    <path
       d="m 459.605,342.094 c 0,0 -4.371,0.954 -7.31,0.681 -2.94,-0.274 -8.003,2.258 -8.003,2.258 0,0 -1.711,0.805 -6.973,1.148 -5.262,0.343 -5.262,-2.328 -5.262,-2.328 0.601,-3.631 8.915,-4.827 9.172,-4.881 -0.102,0.054 -0.536,0.273 -0.976,0.568 -0.59,0.387 -1.229,0.891 -1.277,1.299 -0.091,0.761 3.691,2.145 3.691,2.145 l 5.331,-1.405 c 0,0 0.907,-0.263 2.146,-0.585 h 0.118 c 1.837,-0.5 3.704,-0.885 5.589,-1.153 2.296,-0.247 3.47,1.706 3.712,2.145 0.017,0.035 0.031,0.071 0.042,0.108 z"
       fill="#3f3d56"
       id="path893" />
    <path
       d="m 528.508,245.636 -2.323,1.781 c 0,0 -0.676,-0.032 -1.684,-0.064 h -0.322 c -1.443,-0.054 -3.433,-0.108 -5.122,-0.108 -1.092,-0.049 -2.187,0.012 -3.267,0.183 -1.158,0.407 -3.218,-6.63 -3.218,-6.63 l 2.328,-0.536 0.772,-0.183 0.537,-0.128 1.893,-0.446 5.739,0.655 4.034,2.596 z"
       fill="#fbbebe"
       id="path895" />
    <path
       opacity="0.1"
       d="m 528.508,245.636 -2.323,1.781 c 0,0 -0.676,-0.032 -1.684,-0.064 0.463,-0.179 0.844,-0.52 1.073,-0.96 1.502,-4.168 -5.949,-5.949 -5.949,-5.949 l -3.47,-0.15 -0.676,-0.032 h -0.536 l 0.772,-0.183 0.536,-0.128 1.894,-0.446 5.739,0.655 4.034,2.596 z"
       fill="#000000"
       id="path897" />
    <path
       d="m 533.089,247.519 c -1.406,1.298 -10.61,0 -10.996,-0.032 0.698,0.078 1.405,0.029 2.086,-0.145 0.338,-0.06 0.657,-0.195 0.935,-0.395 0.279,-0.199 0.509,-0.458 0.675,-0.758 1.501,-4.173 -5.949,-5.949 -5.949,-5.949 l -3.47,-0.15 -0.671,-0.032 -8.437,-0.365 -0.408,-2.322 c 0,0 2.741,0.257 7.043,0.6 2.419,0.199 5.364,0.419 8.545,0.628 8.887,0.59 11.001,6.356 11.001,6.356 0,0 1.078,1.234 -0.354,2.564 z"
       fill="#3f3d56"
       id="path899" />
    <path
       d="m 429.862,146.84 c -0.057,0.127 -0.125,0.249 -0.203,0.365 l -2.049,3.004 -5.332,0.536 -0.059,-2.113 -0.896,-31.797 c 0,0 -3.69,-21.3267 3.283,-20.0984 6.973,1.2284 2.596,20.0984 2.596,20.0984 0,0 0.794,9.569 1.352,12.444 0.541,2.778 2.971,14.075 1.308,17.561 z"
       fill="#fbbebe"
       id="path901" />
    <path
       d="m 441.83,225.817 -1.518,2.596 -3.395,5.809 c 0,0 -6.158,2.258 -7.735,0.536 -0.863,-0.938 -1.797,-4.216 -2.451,-6.973 -0.536,-2.231 -0.896,-4.114 -0.896,-4.114 z"
       fill="#fbbebe"
       id="path903" />
    <path
       opacity="0.1"
       d="m 441.83,225.817 -1.518,2.596 c -0.095,-0.082 -0.181,-0.174 -0.257,-0.274 -1.717,-2.188 -9.274,-0.466 -13.324,-0.327 -0.536,-2.231 -0.896,-4.114 -0.896,-4.114 z"
       fill="#000000"
       id="path905" />
    <path
       opacity="0.1"
       d="m 519.057,247.235 c -1.093,-0.05 -2.187,0.012 -3.267,0.182 -1.159,0.408 -3.218,-6.63 -3.218,-6.63 l 3.1,-0.729 -8.437,-0.365 -0.408,-2.322 c 0,0 2.741,0.257 7.043,0.6 0.889,0.512 1.682,1.175 2.344,1.958 l 0.129,0.161 c 1.796,2.205 2.462,5.047 2.714,7.145 z"
       fill="#000000"
       id="path907" />
    <path
       opacity="0.1"
       d="m 452.562,339.428 -2.365,1.566 c -3.529,-0.638 -6.753,-1.641 -7.134,-3.218 -0.002,-0.025 -0.002,-0.05 0,-0.075 0.751,-0.58 1.25,-1.019 1.25,-1.019 z"
       fill="#000000"
       id="path909" />
    <path
       opacity="0.1"
       d="m 459.557,342.002 c -3.117,-0.155 -6.222,-0.488 -9.301,-0.997 1.839,-0.504 3.707,-0.893 5.594,-1.164 2.291,-0.247 3.465,1.705 3.707,2.161 z"
       fill="#000000"
       id="path911" />
    <path
       d="m 518.801,249.943 c 0,1.711 -4.715,2.806 -4.715,2.806 l -14.359,12.782 c 0,0 -9.022,4.033 -14.761,9.842 -5.739,5.809 -10.803,0.821 -10.803,0.821 -6.083,-1.502 -23.601,-22.694 -23.601,-22.694 0,0 -0.407,24.201 -1.228,25.977 -0.821,1.775 0.273,6.629 0.751,8.684 0.301,1.713 0.416,3.454 0.343,5.192 0,0 6.56,25.086 6.013,27.275 -0.547,2.188 3.556,12.444 3.556,12.444 v 8.544 c 0,0 -16.064,-0.616 -16.949,-4.237 -0.885,-3.621 4.028,-5.198 4.028,-5.198 v -0.89 c -3.219,-1.641 -3.825,-12.916 -3.825,-12.916 0,0 -4.79,-13.946 -5.471,-16.269 -0.681,-2.322 0,-5.814 0,-5.814 l -0.477,-3.004 c 0,0 -1.025,-2.054 -1.025,-2.462 -0.134,-1.041 -0.535,-2.029 -1.164,-2.869 -0.75,-0.891 0.821,-3.009 0.821,-3.009 l -1.368,-3.557 v -3.894 l -3.218,-14.149 c 0,0 -3.352,-16.478 -2.188,-21.88 1.164,-5.401 -1.368,-8.131 -1.368,-8.131 5.487,2.875 8.255,-3.524 9.161,-6.276 0.231,-0.708 0.344,-1.18 0.344,-1.18 0,0 7.536,-2.778 14.552,-2.113 1.424,0.115 2.829,0.413 4.178,0.885 7.794,2.805 9.022,14.423 9.022,14.423 l 6.903,10.529 c 3.556,9.366 8.888,10.32 8.888,10.32 0,0 12.508,-8.405 12.873,-8.818 0.365,-0.413 5.128,-2.462 5.128,-2.462 0.563,-0.991 1.425,-1.779 2.462,-2.253 1.641,-0.686 1.775,-3.218 1.775,-3.218 0.204,-5.948 3.691,-6.436 3.691,-6.436 12.1,-1.009 12.031,11.5 12.031,13.205 z"
       fill="#3f3d56"
       id="path913" />
    <path
       d="m 449.211,216.521 h -7.381 v -22.898 h 7.381 z"
       fill="#f86d70"
       id="path915" />
    <path
       opacity="0.1"
       d="m 449.211,216.521 h -7.381 v -22.898 h 7.381 z"
       fill="#000000"
       id="path917" />
    <path
       opacity="0.1"
       d="m 429.868,146.792 c 0.001,0.016 0.001,0.032 0,0.048 -0.057,0.127 -0.125,0.249 -0.204,0.365 l -2.049,3.003 -5.331,0.537 -0.059,-2.113 c 1.663,-0.129 5.449,-0.585 7.643,-1.84 z"
       fill="#000000"
       id="path919" />
    <path
       d="m 429.658,147.205 c 0,0 -0.273,12.025 2.736,13.667 3.009,1.641 4.178,10.191 4.178,10.191 0,0 -9.118,5.997 -11.151,8.636 -2.033,2.639 -6.7,8.925 -5.739,10.427 0.96,1.502 -2.328,8.341 -2.328,8.341 0,0 6.018,12.304 4.65,16.955 -1.368,4.65 -1.502,16.949 -1.502,16.949 h -2.601 c 0,0 0.82,-10.116 0.82,-14.219 0,-4.103 -2.73,-18.731 -2.73,-18.731 0,0 -1.233,-14.353 0,-14.761 1.234,-0.407 8.475,-6.152 9.022,-8.754 0.547,-2.601 -3.83,-26.819 -3.83,-26.819 0,0 5.606,-0.241 8.475,-1.882 z"
       fill="#f86d70"
       id="path921" />
    <path
       opacity="0.1"
       d="m 449.35,191.499 c -0.25,1.674 -0.859,3.273 -1.787,4.688 l -5.052,-0.858 c 0,0 -15.175,-3.422 -18.307,-3.701 -1.898,-0.251 -3.748,-0.778 -5.493,-1.566 1.203,-4.261 3.549,-8.11 6.786,-11.13 l 1.925,-1.786 c 2.838,-2.635 6.126,-4.737 9.709,-6.206 -0.225,0.187 -16.145,13.779 -12.659,16.445 3.487,2.666 12.873,-3.824 12.873,-3.824 l 10.674,-9.172 0.387,-0.333 0.616,0.96 c -0.313,0.129 -0.62,0.276 -0.917,0.44 -3.638,1.997 -6.337,5.352 -7.509,9.333 -2.194,7.375 8.754,6.71 8.754,6.71 z"
       fill="#000000"
       id="path923" />
    <path
       d="m 452.631,225.677 c 0,0 -10.116,5.606 -12.573,2.462 -0.536,-0.692 -1.668,-0.992 -3.079,-1.072 0.231,-0.708 0.344,-1.18 0.344,-1.18 0,0 7.536,-2.779 14.552,-2.114 0.461,1.159 0.756,1.904 0.756,1.904 z"
       fill="#444053"
       id="path925" />
    <path
       d="m 447.975,174.067 -11.06,9.515 c 0,0 -9.349,6.512 -12.873,3.824 -3.524,-2.687 12.664,-16.45 12.664,-16.45 -3.575,1.473 -6.86,3.569 -9.703,6.189 l -1.926,1.787 c -5.064,4.693 -6.206,4.693 -6.378,11.591 -0.043,1.7 0.537,4.141 0.982,4.58 1.641,1.61 2.789,13.297 2.537,14.665 -0.252,1.368 3.057,13.174 1.985,16.456 -1.073,3.283 13.409,-1.641 15.86,1.508 2.452,3.148 12.568,-2.462 12.568,-2.462 0,0 -5.605,-14.359 -6.973,-15.314 -1.368,-0.955 -3.009,-8.341 0,-11.758 3.009,-3.416 3.277,-6.699 3.277,-6.699 0,0 -10.942,0.676 -8.748,-6.699 0.617,-2.138 1.688,-4.118 3.139,-5.804 1.451,-1.687 3.249,-3.04 5.271,-3.969 z"
       fill="#e8e8f0"
       id="path927" />
    <path
       opacity="0.1"
       d="m 433.215,198.268 c 0,0 4.242,7.998 9.73,10.074 0.177,0.064 0.348,0.123 0.536,0.177 5.729,1.743 -10.695,-7.773 -10.266,-10.251 z"
       fill="#000000"
       id="path929" />
    <path
       d="m 492.55,127.514 c 0,0 -2.049,5.198 -3.691,6.973 -1.641,1.775 -13.806,19.551 -13.806,19.551 l -1.03,2.146 -0.885,1.829 -7.794,-0.821 -0.536,-3.143 0.3,-0.365 c 0.783,-0.938 2.918,-3.459 4.35,-4.559 1.776,-1.362 5.332,-5.873 5.332,-5.873 0,0 11.071,-11.49 11.892,-14.633 0.82,-3.143 11.897,-21.992 14.353,-18.73 2.457,3.261 -8.485,17.625 -8.485,17.625 z"
       fill="#fbbebe"
       id="path931" />
    <g
       opacity="0.1"
       id="g937">
      <path
         opacity="0.1"
         d="m 469.935,212.064 c 0.935,-0.081 1.877,0.055 2.751,0.397 1.931,0.939 2.296,3.476 3.369,5.337 1.255,2.178 3.647,3.524 6.109,4.023 0.489,0.095 0.984,0.163 1.481,0.204 -1.569,0.152 -3.15,0.084 -4.699,-0.204 -2.462,-0.499 -4.854,-1.845 -6.11,-4.023 -1.072,-1.861 -1.437,-4.398 -3.368,-5.337 -0.507,-0.228 -1.054,-0.356 -1.609,-0.376 z"
         fill="#000000"
         id="path933" />
      <path
         opacity="0.1"
         d="m 450.881,170.918 c 0,-4.264 -2.773,-7.938 -5.058,-11.538 -2.285,-3.599 -4.205,-8.142 -2.397,-12.004 1.544,-3.299 10.856,-7.724 16.23,-6.849 -5.261,0.681 -11.746,4.146 -13.012,6.849 -1.808,3.862 0.112,8.405 2.397,12.004 2.285,3.6 5.069,7.274 5.059,11.538 0,5.503 0.37,9.655 1.882,14.97 0.435,1.529 -3.754,3.841 -3.111,5.289 2.178,4.828 1.159,10.395 1.507,15.673 0.008,1.031 0.26,2.046 0.735,2.961 1.073,1.765 3.272,2.221 5.412,2.317 h -1.872 c -2.499,0 -5.465,-0.193 -6.758,-2.333 -0.476,-0.915 -0.728,-1.93 -0.735,-2.961 -0.348,-5.278 0.671,-10.851 -1.507,-15.673 -0.654,-1.448 3.545,-3.755 3.111,-5.289 -1.513,-5.278 -1.893,-9.451 -1.883,-14.954 z"
         fill="#000000"
         id="path935" />
    </g>
    <path
       opacity="0.1"
       d="m 474.021,156.173 -0.885,1.829 -7.793,-0.821 -0.537,-3.143 0.301,-0.365 c 0.831,0.408 7.059,3.406 8.914,2.5 z"
       fill="#000000"
       id="path939" />
    <path
       opacity="0.1"
       d="m 445.244,176.733 c 0,0 1.915,-3.004 3.01,-2.189 1.094,0.816 1.518,-2.462 2.145,-1.915 0.628,0.547 2.457,2.071 3.218,-0.059 0.596,-1.695 7.075,-12.417 9.704,-16.729 0.675,-1.116 1.099,-1.803 1.099,-1.803 0,0 7.381,3.691 9.156,2.462 v 2.596 l -1.502,0.14 -8.045,15.019 c 0,0 -2.532,4.028 -2.36,5.433 0.171,1.405 -3.246,7.558 -3.793,7.965 -0.547,0.408 -6.436,7.247 -6.436,7.247 0,0 -3.009,14.767 -0.408,18.87 2.601,4.103 7.107,7.107 7.107,7.107 0,0 1.357,3.964 1.159,4.377 -0.199,0.413 1.577,2.188 0.756,2.735 -0.821,0.547 -1.915,4.372 -1.915,4.372 0,0 -3.83,-6.152 -5.9,-7.107 -2.071,-0.955 -4.72,-13.539 -4.72,-13.539 0,0 -0.757,-7.412 -0.816,-12.197 -0.059,-4.784 0.183,-22.785 -1.459,-22.785 z"
       fill="#000000"
       id="path941" />
    <path
       d="m 445.659,176.733 c 0,0 1.909,-3.004 3.003,-2.189 1.094,0.816 1.524,-2.462 2.146,-1.915 0.622,0.547 2.451,2.071 3.218,-0.059 0.601,-1.695 7.08,-12.417 9.703,-16.729 l 1.1,-1.803 c 0,0 7.38,3.691 9.161,2.462 v 2.596 l -1.507,0.14 -8.046,15.019 c 0,0 -2.537,4.028 -2.36,5.433 0.177,1.405 -3.218,7.558 -3.792,7.965 -0.574,0.408 -6.437,7.247 -6.437,7.247 0,0 -3.009,14.767 -0.413,18.87 1.372,2.061 3.04,3.908 4.951,5.482 1.605,1.324 2.735,3.135 3.218,5.16 0.094,0.276 0.126,0.568 0.097,0.858 -0.198,0.407 1.577,2.188 0.756,2.735 -0.82,0.547 -1.925,4.388 -1.925,4.388 0,0 -3.83,-6.152 -5.901,-7.107 -2.07,-0.955 -4.725,-13.538 -4.725,-13.538 0,0 -0.751,-7.413 -0.815,-12.198 -0.065,-4.784 0.177,-22.817 -1.432,-22.817 z"
       fill="#f86d70"
       id="path943" />
    <path
       opacity="0.1"
       d="m 464.389,238.942 c 0,0 -5.745,1.073 -8.046,2.73 -2.301,1.658 8.749,-2.596 8.749,-2.596 z"
       fill="#000000"
       id="path945" />
    <path
       opacity="0.1"
       d="m 450.578,253.5 c 0,0 -5.991,4.993 -4.919,9.504 1.073,4.511 3.841,15.861 3.841,15.861 z"
       fill="#000000"
       id="path947" />
    <path
       opacity="0.1"
       d="m 502.977,243.898 c 0,0 8.443,0.923 7.896,2.017 -0.547,1.094 -7.896,-1.008 -7.896,-1.008 z"
       fill="#000000"
       id="path949" />
    <path
       opacity="0.1"
       d="m 438.148,285.425 c 0,0 -0.536,0.681 2.597,0 3.132,-0.681 0.82,-2.784 0.82,-2.784 z"
       fill="#000000"
       id="path951" />
    <path
       opacity="0.1"
       d="m 439.223,294.86 c 0,0 4.291,0.681 6.592,0 2.301,-0.681 -6.592,0 -6.592,0 z"
       fill="#000000"
       id="path953" />
    <path
       opacity="0.1"
       d="m 448.05,331.774 c 0,0 0.751,-0.821 4.511,0.681 3.76,1.502 5.262,1.572 6.357,1.073 1.094,-0.499 -10.868,-1.754 -10.868,-1.754 z"
       fill="#000000"
       id="path955" />
    <path
       opacity="0.1"
       d="m 443.879,242.734 5.332,7.419 c 0,0 -2.87,-6.496 -5.332,-7.419 z"
       fill="#000000"
       id="path957" />
    <path
       opacity="0.1"
       d="m 454.24,174.544 c 0,0 0.231,2.462 3.669,3.422 3.439,0.96 4.093,1.738 4.093,1.738"
       fill="#000000"
       id="path959" />
    <path
       opacity="0.1"
       d="m 463.177,156.698 c 0,0 4.538,3.219 9.274,2.538 z"
       fill="#000000"
       id="path961" />
    <path
       opacity="0.1"
       d="m 459.723,225.608 c 0,0 -1.325,0.831 -4.506,-2.806 z"
       fill="#000000"
       id="path963" />
    <path
       opacity="0.1"
       d="m 426.686,187.047 c -0.129,-0.665 0.333,-1.282 0.767,-1.802 l 0.891,-1.073 c 0.174,-0.22 0.369,-0.421 0.584,-0.601 0.537,-0.413 1.223,-0.536 1.781,-0.906"
       fill="#000000"
       id="path965" />
  </g>
  <defs
     id="defs978">
    <linearGradient
       gradientUnits="userSpaceOnUse"
       y2="134409"
       x2="-47253.699"
       y1="134409"
       x1="-20761"
       id="paint0_linear">
      <stop
         id="stop971"
         stop-opacity="0.25"
         stop-color="#808080" />
      <stop
         id="stop973"
         stop-opacity="0.12"
         stop-color="#808080"
         offset="0.54" />
      <stop
         id="stop975"
         stop-opacity="0.1"
         stop-color="#808080"
         offset="1" />
    </linearGradient>
  </defs>
</svg>
