<svg width="380" height="300" viewBox="0 0 380 300" fill="none" xmlns="http://www.w3.org/2000/svg">
<g clip-path="url(#clip0)">
<path d="M174.664 10.3104C174.894 10.8344 175.065 11.3821 175.174 11.9435C174.926 11.087 174.731 10.5057 174.664 10.3104Z" fill="#3F3D56"/>
<path d="M182.536 37.4432C182.536 37.4432 182.536 38.0557 181.875 40.2657L182.536 37.4432Z" fill="#3F3D56"/>
<path d="M263.567 129.888C246.113 138.985 223.281 146.84 216.442 149.117C221.656 147.759 236.834 145.93 260.35 160.602C289.897 179.032 321.49 166.744 321.49 166.744C321.49 166.744 314.469 180.204 299.549 181.078C284.629 181.957 245.723 157.384 232.56 164.405C219.393 171.426 213.251 162.648 207.984 180.204C202.72 197.755 193.068 245.728 204.185 272.644L215.297 299.555H152.111C152.111 299.555 174.93 238.708 162.349 201.266C155.306 180.297 145.419 165.111 141.731 157.393C139.88 153.528 139.588 151.54 141.984 151.637C143.346 151.695 145.579 152.427 148.894 153.874C148.894 153.874 133.681 138.954 128.71 138.954C123.736 138.954 100.331 136.615 92.7285 128.716C92.7285 128.716 81.9046 121.11 62.5956 139.833C43.2866 158.556 47.9685 158.556 30.7098 157.092C13.7218 155.649 0.412718 147.408 0 147.151C0.492599 147.35 20.3342 155.281 32.4627 151.242C44.7511 147.146 55.2821 131.641 66.106 126.377C76.9298 121.11 83.3647 114.089 97.9918 121.695L88.3528 98.9692L85.7123 92.7429L85.7079 92.734C85.7079 92.734 82.486 50.0244 76.344 47.0998C70.2021 44.1709 74.0053 36.5688 62.5956 35.1044C62.5956 35.1044 76.6369 33.347 79.2686 43.0037C81.9046 52.656 100.042 104.73 100.042 104.73C100.042 104.73 111.154 126.959 123.443 121.695C135.731 116.428 118.761 86.885 118.761 86.885L97.6989 77.2283C97.6989 77.2283 113.498 76.6425 123.15 85.7134C132.802 94.7799 133.388 124.034 133.388 124.034C133.388 124.034 157.667 127.544 163.521 140.711C163.521 140.711 167.324 129.009 160.011 121.988C158.182 120.231 156.261 117.178 154.41 113.587C147.395 99.8075 144.86 84.1805 147.159 68.8896C148.246 61.4074 148.916 54.0894 147.722 52.3631C145.091 48.5599 133.974 25.1592 133.095 19.0128C132.221 12.8708 133.974 0.00109863 133.974 0.00109863C133.974 0.00109863 134.267 15.7953 137.777 20.7702C141.287 25.745 151.232 50.3172 151.232 50.3172C151.232 50.3172 151.232 81.3244 159.425 96.5373C167.617 111.75 183.411 128.716 182.537 139.833V146.268C182.537 146.268 200.089 129.595 198.917 124.034C197.745 118.478 196.285 105.311 185.169 97.416C174.052 89.5166 166.738 76.9354 174.638 58.7979C179.08 48.5954 181.024 43.1146 181.876 40.27L177.269 59.9695C177.269 59.9695 174.345 80.1528 182.537 87.1734C182.559 87.1912 182.577 87.2089 182.599 87.2267C190.778 94.2562 201.549 107.068 201.549 107.068L201.518 106.505L199.21 64.9443L199.716 66.0538L203.364 74.0508L206.816 81.6173C206.816 81.6173 223.196 60.5553 242.505 53.5347C261.81 46.514 273.805 21.9417 273.805 21.9417L290.19 9.06759L276.73 25.1592C276.73 25.1592 272.634 44.1708 249.526 57.6308C226.414 71.0863 211.498 90.9767 210.62 103.265C209.741 115.553 208.862 126.377 208.862 126.377C208.862 126.377 252.158 124.913 261.81 105.897C271.467 86.885 279.366 86.0063 279.366 86.0063L273.805 102.386L267.663 116.428C267.663 116.428 292.822 117.013 305.984 131.933C319.151 146.853 351.911 151.242 351.911 151.242L333.485 156.213C333.485 156.213 315.929 150.364 299.256 139.54C282.583 128.716 284.336 119.064 263.567 129.888Z" fill="#3F3D56"/>
<path opacity="0.1" d="M272.895 89.9739C271.044 98.1661 268.865 106.079 265.803 112.11C256.151 131.126 212.855 132.59 212.855 132.59C212.855 132.59 213.06 130.079 213.37 126.116C224.363 125.21 254.411 121.345 262.253 105.897C262.972 104.486 263.638 102.968 264.268 101.37L272.895 89.9739Z" fill="black"/>
<path opacity="0.1" d="M205.542 113.281C205.542 113.281 194.718 100.407 186.531 93.3866C184.733 91.8511 183.473 89.6765 182.599 87.2268C182.528 87.0316 182.461 86.8319 182.395 86.6322C182.585 86.8186 182.776 87.0005 182.98 87.1736C190.147 93.32 199.338 103.953 201.517 106.505C201.823 106.869 201.992 107.068 201.992 107.068L199.715 66.054L203.363 74.0509L205.542 113.281Z" fill="black"/>
<path opacity="0.1" d="M211.809 76.3441C211.745 83.5466 210.811 87.8303 210.811 87.8303C210.811 87.8303 227.186 66.7768 246.488 59.7515C247.629 59.0298 248.786 58.3192 249.97 57.6295C273.081 44.1728 277.176 25.158 277.176 25.158L290.633 9.0686L274.251 21.9402C274.251 21.9402 262.257 46.5131 242.95 53.534C229.789 58.3197 217.99 69.6279 211.809 76.3441Z" fill="black"/>
<path opacity="0.1" d="M186.53 146.045V152.481C186.53 152.481 204.082 135.806 202.912 130.248C202.017 125.997 200.946 117.3 195.521 109.909C197.966 115.494 198.71 120.942 199.362 124.035C200.201 128.021 191.413 137.722 186.373 142.893C186.55 143.934 186.602 144.992 186.53 146.045Z" fill="black"/>
<path opacity="0.1" d="M162.984 101.879C163.123 102.176 163.267 102.468 163.419 102.75C167.905 111.081 174.668 119.936 179.728 128.071C175.638 120.015 168.521 110.803 162.984 101.879Z" fill="black"/>
<path opacity="0.1" d="M260.793 160.602C251.17 154.599 242.944 151.36 236.225 149.719C229.177 152.372 223.376 154.35 220.457 155.321C225.692 153.966 240.858 152.166 264.343 166.815C282.769 178.308 301.991 177.855 313.85 175.886C317.13 173.412 319.879 170.303 321.933 166.745C321.933 166.745 290.339 179.032 260.793 160.602Z" fill="black"/>
<path opacity="0.1" d="M177.246 89.425C174.887 83.6449 174.499 76.7671 177.209 68.7077C177.175 65.7869 177.343 62.8673 177.713 59.9698L182.319 40.2653C181.47 43.1068 179.527 48.5887 175.08 58.7996C169.451 71.7263 171.552 81.8273 177.246 89.425Z" fill="black"/>
<path opacity="0.1" d="M306.428 131.934C297.299 121.587 282.403 118.135 274.129 116.991L271.656 122.642C271.656 122.642 296.814 123.227 309.978 138.146C317.278 146.42 330.604 151.453 341.029 154.297L352.356 151.241C352.356 151.241 319.592 146.853 306.428 131.934Z" fill="black"/>
<path opacity="0.1" d="M127.438 127.908C139.724 122.642 122.757 93.096 122.757 93.096L122.293 92.8833C126.523 101.808 132.658 117.936 123.887 121.695C115.681 125.212 107.997 116.462 103.799 110.262C103.951 110.701 104.035 110.941 104.035 110.941C104.035 110.941 115.151 133.173 127.438 127.908Z" fill="black"/>
<path opacity="0.1" d="M167.514 146.923C167.514 146.923 171.217 135.511 164.261 128.465C165.967 134.535 163.964 140.71 163.964 140.71C159.438 130.526 143.886 126.121 137.074 124.647C137.338 128.038 137.383 130.248 137.383 130.248C137.383 130.248 161.664 133.758 167.514 146.923Z" fill="black"/>
<path opacity="0.1" d="M182.32 40.2653C182.98 38.0595 182.98 37.4446 182.98 37.4446L182.32 40.2653Z" fill="black"/>
<path opacity="0.1" d="M36.2797 157.51C36.3387 157.491 36.3986 157.473 36.4572 157.454C48.7437 153.358 59.275 137.854 70.0988 132.588C80.9227 127.323 87.3584 120.302 101.985 127.908C101.985 127.908 99.4262 117.433 94.4674 110.552C96.1099 114.144 97.4374 117.873 98.4349 121.695C83.8081 114.089 77.3723 121.11 66.5486 126.375C55.7248 131.641 45.1935 147.145 32.907 151.241C20.6205 155.336 0.435547 147.145 0.435547 147.145C0.435547 147.145 13.8922 155.629 31.1518 157.092C33.1262 157.259 34.8108 157.406 36.2797 157.51Z" fill="black"/>
<path opacity="0.1" d="M89.702 98.9472C89.702 98.9472 89.2228 98.9561 88.353 98.9694L85.7124 92.7431C86.0009 92.7387 86.1518 92.7342 86.1518 92.7342C86.1518 92.7342 84.1193 65.7966 80.2051 53.2419C80.2539 53.2641 80.2938 53.2908 80.3382 53.313C86.4802 56.2375 89.702 98.9472 89.702 98.9472Z" fill="black"/>
<path opacity="0.1" d="M158.242 299.556C163.602 283.125 176.493 237.688 166.344 207.477C161.961 194.431 157.898 186.111 154.464 180.804C157.032 185.828 159.84 192.474 162.793 201.264C175.372 238.709 152.555 299.556 152.555 299.556H158.242Z" fill="black"/>
<path opacity="0.1" d="M152.887 160.087C149.357 158.535 145.579 157.623 141.73 157.393C139.879 153.528 139.586 151.54 141.983 151.638C142.648 151.757 143.319 151.899 143.984 152.064C148.688 155.969 152.887 160.087 152.887 160.087Z" fill="black"/>
<path opacity="0.1" d="M73.6934 44.2583C74.027 44.8202 74.4313 45.3371 74.8964 45.7963C74.5548 45.2398 74.1512 44.7238 73.6934 44.2583Z" fill="black"/>
<path opacity="0.1" d="M127.143 91.9258C127.596 92.3534 128.019 92.8102 128.412 93.2932C127.13 90.2126 125.548 87.5489 123.593 85.7129C113.94 76.6443 98.1426 77.2293 98.1426 77.2293L117.954 86.3094C121.348 87.5758 124.468 89.4825 127.143 91.9258Z" fill="black"/>
<path opacity="0.1" d="M148.167 52.3639C149.361 54.0883 148.691 61.4063 147.601 68.8908C145.303 84.1811 147.839 99.8073 154.855 113.586C155.787 115.43 156.827 117.217 157.972 118.937C151.286 105.362 148.906 90.0685 151.151 75.1038C152.241 67.6193 152.912 60.3012 151.718 58.5768C149.085 54.7739 137.969 31.371 137.091 25.2278C136.828 22.8445 136.766 20.4432 136.908 18.0496C134.635 11.6021 134.418 0 134.418 0C134.418 0 132.663 12.8716 133.541 19.0148C134.418 25.158 145.535 48.5609 148.167 52.3639Z" fill="black"/>
<path opacity="0.1" d="M175.611 11.9219C175.494 11.3437 175.316 10.7795 175.08 10.2388C175.08 10.2388 175.305 10.8701 175.611 11.9219Z" fill="black"/>
<path opacity="0.1" d="M72.2864 41.3841C74.8646 41.6997 77.8302 42.4907 80.0924 44.3252C79.9448 43.8261 79.8161 43.3787 79.7136 43.0028C77.0807 33.3491 63.0391 35.1043 63.0391 35.1043C69.3847 35.9178 71.0237 38.632 72.2864 41.3841Z" fill="black"/>
<path d="M348.155 284.526C343.792 291.217 344.988 299.726 344.988 299.726C344.988 299.726 353.257 297.388 357.619 290.698C361.982 284.007 360.787 275.498 360.787 275.498C360.787 275.498 352.518 277.836 348.155 284.526Z" fill="#3F3D56"/>
<path d="M351.431 285.709C351.086 293.689 345.163 299.914 345.163 299.914C345.163 299.914 339.798 293.201 340.143 285.221C340.488 277.241 346.411 271.016 346.411 271.016C346.411 271.016 351.776 277.729 351.431 285.709Z" fill="#FD97B6"/>
<path d="M278.591 228.848C278.653 228.774 278.652 228.671 278.588 228.618C278.525 228.565 278.424 228.583 278.362 228.657C278.3 228.731 278.301 228.834 278.364 228.886C278.428 228.939 278.529 228.922 278.591 228.848Z" fill="#F2F2F2"/>
<path d="M282.96 234.642C283.001 234.593 283 234.524 282.958 234.489C282.916 234.454 282.848 234.465 282.807 234.515C282.766 234.564 282.767 234.633 282.809 234.668C282.851 234.703 282.918 234.691 282.96 234.642Z" fill="#F2F2F2"/>
<path d="M379.574 299.113H21.8848V300H379.574V299.113Z" fill="#3F3D56"/>
<path d="M216.796 284.526C212.433 291.217 213.628 299.726 213.628 299.726C213.628 299.726 221.897 297.388 226.26 290.698C230.623 284.007 229.427 275.498 229.427 275.498C229.427 275.498 221.159 277.836 216.796 284.526Z" fill="#3F3D56"/>
<path d="M220.072 285.709C219.727 293.689 213.803 299.914 213.803 299.914C213.803 299.914 208.439 293.201 208.784 285.221C209.128 277.241 215.052 271.016 215.052 271.016C215.052 271.016 220.417 277.729 220.072 285.709Z" fill="#FD97B6"/>
<path d="M144.995 287.057C147.081 294.767 154.225 299.542 154.225 299.542C154.225 299.542 157.988 291.817 155.902 284.107C153.816 276.396 146.672 271.621 146.672 271.621C146.672 271.621 142.909 279.347 144.995 287.057Z" fill="#3F3D56"/>
<path d="M148.06 285.4C153.783 290.972 154.482 299.536 154.482 299.536C154.482 299.536 145.902 299.068 140.178 293.496C134.455 287.925 133.756 279.36 133.756 279.36C133.756 279.36 142.336 279.829 148.06 285.4Z" fill="#FD97B6"/>
<path d="M129.089 76.3514C128.592 84.3233 122.55 90.4338 122.55 90.4338C122.55 90.4338 117.315 83.6195 117.813 75.6476C118.31 67.6757 124.352 61.5652 124.352 61.5652C124.352 61.5652 129.587 68.3796 129.089 76.3514Z" fill="#004492"/>
<path d="M66.1102 25.9547C72.8668 30.2145 75.3313 38.4466 75.3313 38.4466C75.3313 38.4466 66.841 39.7723 60.0844 35.5125C53.3277 31.2527 50.8633 23.0205 50.8633 23.0205C50.8633 23.0205 59.3536 21.6949 66.1102 25.9547Z" fill="#004492"/>
<path d="M51.0223 123.143C57.7789 127.403 60.2434 135.635 60.2434 135.635C60.2434 135.635 51.7531 136.961 44.9965 132.701C38.2398 128.441 35.7754 120.209 35.7754 120.209C35.7754 120.209 44.2657 118.883 51.0223 123.143Z" fill="#004492"/>
<path d="M188.382 40.1629C186.344 47.886 179.23 52.7056 179.23 52.7056C179.23 52.7056 175.419 45.0036 177.457 37.2805C179.494 29.5574 186.609 24.7378 186.609 24.7378C186.609 24.7378 190.419 32.4398 188.382 40.1629Z" fill="#FD97B6"/>
<path d="M252.657 46.1848C250.262 53.8046 242.931 58.2879 242.931 58.2879C242.931 58.2879 239.483 50.4169 241.878 42.797C244.273 35.1771 251.603 30.6938 251.603 30.6938C251.603 30.6938 255.051 38.5649 252.657 46.1848Z" fill="#FD97B6"/>
<path d="M322.13 130.99C317.791 137.697 309.531 140.065 309.531 140.065C309.531 140.065 308.304 131.56 312.643 124.854C316.981 118.147 325.241 115.779 325.241 115.779C325.241 115.779 326.468 124.284 322.13 130.99Z" fill="#FD97B6"/>
</g>
<defs>
<clipPath id="clip0">
<rect width="379.575" height="300" fill="white"/>
</clipPath>
</defs>
</svg>
